<svg width="1230" height="1160" viewBox="0 0 1230 1160" fill="none" xmlns="http://www.w3.org/2000/svg">
<path d="M997.73 77.2993C985.036 70.3558 979.259 76.133 974.621 70.3559C969.983 64.5787 987.342 49.5526 952.679 34.5536C952.679 34.5536 950.373 2.19592 902.989 1.02963C855.606 -0.136656 868.326 33.4687 855.524 41.5513C842.722 49.6339 839.251 36.9404 826.638 45.023C814.026 53.1057 819.695 69.4337 809.307 71.6035C798.919 73.7733 785.032 61.1883 772.338 69.2981C759.645 77.4078 759.618 84.297 753.84 84.297C748.063 84.297 736.509 79.6861 729.593 84.297C722.676 88.9079 714.566 94.7122 714.566 94.7122H1006.98C1006.98 94.7122 1010.45 84.297 997.73 77.2993Z" stroke="#263238" stroke-linecap="round" stroke-linejoin="round"/>
<path d="M824.821 72.6343C823.16 73.5622 821.438 74.3777 819.668 75.0753" stroke="#263238" stroke-linecap="round" stroke-linejoin="round"/>
<path d="M887.366 18.6597C884.498 19.9417 881.977 21.8905 880.015 24.3438C878.052 26.7971 876.704 29.6838 876.083 32.7636C873.967 43.3415 869.031 50.3935 863.389 51.0987C857.748 51.8039 836.592 49.6883 833.066 57.4455C832.126 59.7177 831.461 62.0943 831.086 64.5246" stroke="#263238" stroke-linecap="round" stroke-linejoin="round"/>
<path d="M849.53 160.431C842.858 156.797 839.847 159.834 837.406 156.797C834.965 153.759 844.078 145.947 825.906 138.028C825.906 138.028 824.685 121.049 799.868 120.452C775.05 119.855 781.696 137.404 775.023 141.662C768.351 145.92 766.534 139.221 759.889 143.479C753.244 147.738 756.254 156.2 750.803 157.393C745.351 158.587 738.055 151.969 731.41 156.2C724.764 160.431 724.737 164.066 721.7 164.066C718.662 164.066 712.613 161.652 708.979 164.066C705.344 166.479 701.113 169.49 701.113 169.49H854.385C854.385 169.49 856.202 164.093 849.53 160.431Z" stroke="#263238" stroke-linecap="round" stroke-linejoin="round"/>
<path d="M758.858 157.936C757.991 158.436 757.084 158.862 756.146 159.211" stroke="#263238" stroke-linecap="round" stroke-linejoin="round"/>
<path d="M791.649 129.646C790.154 130.312 788.839 131.323 787.811 132.596C786.783 133.869 786.072 135.368 785.737 136.97C784.625 142.394 782.048 146.219 779.091 146.598C776.135 146.978 765.042 145.866 763.197 149.934C762.701 151.118 762.346 152.356 762.14 153.623" stroke="#263238" stroke-linecap="round" stroke-linejoin="round"/>
<path d="M81.3811 417.692C81.3811 417.692 203.434 429.762 265.193 505.381C265.193 505.381 330.505 417.774 447.839 419.591C476.495 385.008 494.739 342.997 500.446 298.448C506.154 253.9 499.089 208.646 480.076 167.957C461.063 127.267 430.883 92.8148 393.05 68.6114C355.217 44.4079 311.287 31.4488 266.375 31.2427C221.462 31.0367 177.415 43.5921 139.362 67.4473C101.308 91.3026 70.8132 125.476 51.4275 165.99C32.0417 206.503 24.5625 251.69 29.8606 296.289C35.1587 340.888 53.0161 383.065 81.354 417.909L81.3811 417.692Z" fill="#57E089"/>
<path opacity="0.5" d="M81.3811 417.692C81.3811 417.692 203.434 429.762 265.193 505.381C265.193 505.381 330.505 417.774 447.839 419.591C476.495 385.008 494.739 342.997 500.446 298.448C506.154 253.9 499.089 208.646 480.076 167.957C461.063 127.267 430.883 92.8148 393.05 68.6114C355.217 44.4079 311.287 31.4488 266.375 31.2427C221.462 31.0367 177.415 43.5921 139.362 67.4473C101.308 91.3026 70.8132 125.476 51.4275 165.99C32.0417 206.503 24.5625 251.69 29.8606 296.289C35.1587 340.888 53.0161 383.065 81.354 417.909L81.3811 417.692Z" fill="white"/>
<path d="M261.151 47.8979L257.028 980.493H277.642L261.151 47.8979Z" fill="#263238"/>
<path d="M267.336 482.326C267.336 482.326 308.508 408.226 382.635 385.579C382.635 385.579 304.386 404.104 265.274 467.924L267.336 482.326Z" fill="#263238"/>
<path d="M267.336 272.341C267.336 272.341 308.508 198.214 382.635 175.566C382.635 175.566 304.386 194.091 265.274 257.911L267.336 272.341Z" fill="#263238"/>
<path d="M267.336 377.333C267.336 377.333 308.508 303.206 382.635 280.559C382.635 280.559 304.386 299.084 265.274 362.931L267.336 377.333Z" fill="#263238"/>
<path d="M261.233 325.854C261.233 325.854 221.498 251.727 150.029 229.079C150.029 229.079 225.54 247.631 263.268 311.452L261.233 325.854Z" fill="#263238"/>
<path d="M261.233 428.813C261.233 428.813 221.498 354.686 150.029 332.038C150.029 332.038 225.54 350.563 263.268 414.383L261.233 428.813Z" fill="#263238"/>
<path d="M865.83 497.515C865.83 497.515 970.525 507.876 1023.58 572.781C1023.58 572.781 1079.61 497.597 1180.29 499.143C1204.87 469.468 1220.52 433.421 1225.41 395.199C1230.31 356.977 1224.24 318.152 1207.93 283.243C1191.61 248.334 1165.71 218.777 1133.25 198.013C1100.79 177.249 1063.1 166.131 1024.57 165.955C986.034 165.779 948.243 176.551 915.594 197.018C882.945 217.484 856.78 246.803 840.146 281.562C823.512 316.32 817.092 355.088 821.634 393.354C826.176 431.619 841.494 467.807 865.803 497.705L865.83 497.515Z" fill="#57E089"/>
<path opacity="0.5" d="M865.83 497.515C865.83 497.515 970.525 507.876 1023.58 572.781C1023.58 572.781 1079.61 497.597 1180.29 499.143C1204.87 469.468 1220.52 433.421 1225.41 395.199C1230.31 356.977 1224.24 318.152 1207.93 283.243C1191.61 248.334 1165.71 218.777 1133.25 198.013C1100.79 177.249 1063.1 166.131 1024.57 165.955C986.034 165.779 948.243 176.551 915.594 197.018C882.945 217.484 856.78 246.803 840.146 281.562C823.512 316.32 817.092 355.088 821.634 393.354C826.176 431.619 841.494 467.807 865.803 497.705L865.83 497.515Z" fill="white"/>
<path d="M1020.11 180.177L1016.58 980.493H1034.24L1020.11 180.177Z" fill="#263238"/>
<path d="M1025.39 552.981C1025.39 552.981 1060.65 489.378 1124.34 469.958C1124.34 469.958 1057.21 485.852 1023.63 540.478L1025.39 552.981Z" fill="#263238"/>
<path d="M1025.39 372.777C1025.39 372.777 1060.65 309.173 1124.34 289.726C1124.34 289.726 1057.21 305.62 1023.63 360.409L1025.39 372.777Z" fill="#263238"/>
<path d="M1025.39 462.879C1025.39 462.879 1060.65 399.276 1124.34 379.829C1124.34 379.829 1057.21 395.75 1023.63 450.511L1025.39 462.879Z" fill="#263238"/>
<path d="M1020.16 418.723C1020.16 418.723 986.066 355.092 924.687 335.672C924.687 335.672 989.483 351.566 1021.87 406.355L1020.16 418.723Z" fill="#263238"/>
<path d="M1020.16 507.062C1020.16 507.062 986.066 443.459 924.687 424.012C924.687 424.012 989.483 439.906 1021.87 494.694L1020.16 507.062Z" fill="#263238"/>
<path d="M621.29 983.829C621.67 975.34 620.53 959.256 611.309 935.008C596.852 897.036 571.546 972.98 571.546 972.98C571.546 972.98 571.546 963.948 544.423 935.008C517.301 906.068 493.785 956.706 493.785 956.706C493.785 956.706 506.451 835.575 475.694 844.607C444.937 853.639 448.571 956.706 448.571 956.706C448.571 956.706 426.873 880.762 397.96 880.762C369.047 880.762 361.778 935.008 361.778 935.008C361.778 935.008 354.563 839.183 325.623 837.365C296.683 835.548 264.244 916.944 264.244 916.944C264.244 916.944 273.303 808.452 244.362 803.028C215.422 797.603 204.573 842.79 204.573 842.79C204.573 842.79 179.267 692.719 130.446 710.81C81.6248 728.901 123.204 895.246 123.204 895.246C123.204 895.246 74.383 779.512 34.5122 806.635C-1.56126 831.317 44.3579 960.531 53.0372 983.829H621.29Z" fill="#57E089"/>
<path d="M38.1194 987.464C38.1194 987.464 16.421 918.734 27.2702 907.885C38.1194 897.036 85.2319 944.067 85.2319 944.067C85.2319 944.067 50.8943 828.334 105.14 813.877C159.386 799.42 168.309 925.976 168.309 925.976C168.309 925.976 208.099 868.123 217.131 889.821C222.624 903.028 225.72 917.108 226.271 931.401C226.271 931.401 246.179 774.088 291.366 781.329C336.553 788.571 295.001 944.067 295.001 944.067C295.001 944.067 320.306 889.821 349.247 895.246C378.187 900.67 389.009 935.008 389.009 935.008C389.009 935.008 401.675 904.278 410.707 904.278C419.739 904.278 430.615 958.524 430.615 958.524C430.615 958.524 441.465 875.338 461.346 878.972C481.227 882.607 522.725 953.099 522.725 953.099C522.725 953.099 515.483 913.31 537.181 911.52C558.88 909.729 571.546 972.98 571.546 972.98C571.546 972.98 600.459 913.31 618.55 924.159C636.641 935.008 627.691 992.888 627.691 992.888" stroke="#263238" stroke-linecap="round" stroke-linejoin="round"/>
<path d="M137.579 987.464L119.488 906.095" stroke="#263238" stroke-linecap="round" stroke-linejoin="round"/>
<path d="M247.861 983.829L256.92 933.218" stroke="#263238" stroke-linecap="round" stroke-linejoin="round"/>
<path d="M481.118 987.464L464.845 942.25" stroke="#263238" stroke-linecap="round" stroke-linejoin="round"/>
<path d="M336.472 985.647L356.353 949.492" stroke="#263238" stroke-linecap="round" stroke-linejoin="round"/>
<path d="M132.155 953.099L146.612 924.159" stroke="#263238" stroke-linecap="round" stroke-linejoin="round"/>
<path d="M247.861 967.555L235.222 942.25" stroke="#263238" stroke-linecap="round" stroke-linejoin="round"/>
<path d="M345.504 965.765L336.472 949.492" stroke="#263238" stroke-linecap="round" stroke-linejoin="round"/>
<path d="M473.904 963.948L479.329 945.857" stroke="#263238" stroke-linecap="round" stroke-linejoin="round"/>
<path d="M1176.17 983.829C1176.55 975.34 1175.41 959.256 1166.19 935.008C1151.73 897.036 1126.43 972.98 1126.43 972.98C1126.43 972.98 1126.43 963.948 1099.3 935.008C1072.18 906.068 1048.67 956.706 1048.67 956.706C1048.67 956.706 1061.33 835.575 1030.57 844.607C999.818 853.639 1003.45 956.706 1003.45 956.706C1003.45 956.706 981.754 880.762 952.841 880.762C923.928 880.762 916.659 935.008 916.659 935.008C916.659 935.008 909.444 839.183 880.504 837.365C851.564 835.548 819.016 916.944 819.016 916.944C819.016 916.944 828.075 808.452 799.135 803.028C770.195 797.603 759.346 842.79 759.346 842.79C759.346 842.79 734.04 692.719 685.219 710.81C636.397 728.901 677.977 895.246 677.977 895.246C677.977 895.246 629.156 779.512 589.393 806.635C553.211 831.29 599.239 960.531 607.918 983.829H1176.17Z" fill="#57E089"/>
<path d="M593 987.464C593 987.464 571.302 918.734 582.151 907.885C593 897.036 640.004 944.067 640.004 944.067C640.004 944.067 605.667 828.334 659.912 813.877C714.158 799.42 723.19 925.976 723.19 925.976C723.19 925.976 762.98 868.123 772.012 889.821C777.468 903.035 780.526 917.114 781.044 931.401C781.044 931.401 800.952 774.088 846.139 781.329C891.325 788.571 849.773 944.067 849.773 944.067C849.773 944.067 875.079 889.821 904.019 895.246C932.959 900.67 943.781 935.008 943.781 935.008C943.781 935.008 956.448 904.278 965.479 904.278C974.511 904.278 985.388 958.524 985.388 958.524C985.388 958.524 996.237 875.338 1016.12 878.972C1036 882.607 1077.61 953.099 1077.61 953.099C1077.61 953.099 1070.36 913.31 1092.06 911.52C1113.76 909.729 1126.43 972.98 1126.43 972.98C1126.43 972.98 1155.34 913.31 1173.43 924.159C1191.52 935.008 1182.46 992.888 1182.46 992.888" stroke="#263238" stroke-linecap="round" stroke-linejoin="round"/>
<path d="M692.46 987.464L674.369 906.095" stroke="#263238" stroke-linecap="round" stroke-linejoin="round"/>
<path d="M802.742 983.829L811.801 933.218" stroke="#263238" stroke-linecap="round" stroke-linejoin="round"/>
<path d="M1036 987.464L1019.73 942.25" stroke="#263238" stroke-linecap="round" stroke-linejoin="round"/>
<path d="M891.353 985.647L911.234 949.492" stroke="#263238" stroke-linecap="round" stroke-linejoin="round"/>
<path d="M687.036 953.099L701.493 924.159" stroke="#263238" stroke-linecap="round" stroke-linejoin="round"/>
<path d="M802.743 967.555L790.104 942.25" stroke="#263238" stroke-linecap="round" stroke-linejoin="round"/>
<path d="M900.385 965.765L891.353 949.492" stroke="#263238" stroke-linecap="round" stroke-linejoin="round"/>
<path d="M1028.79 963.948L1034.21 945.857" stroke="#263238" stroke-linecap="round" stroke-linejoin="round"/>
<path d="M585.352 782.008H555.219V992.888H585.352V782.008Z" fill="#CCCCCC" stroke="#263238" stroke-linecap="round" stroke-linejoin="round"/>
<path d="M611.173 782.008H581.039V992.888H611.173V782.008Z" fill="white" stroke="#263238" stroke-linecap="round" stroke-linejoin="round"/>
<path d="M908.115 782.008H877.981V992.888H908.115V782.008Z" fill="#CCCCCC" stroke="#263238" stroke-linecap="round" stroke-linejoin="round"/>
<path d="M933.936 782.008H903.803V992.888H933.936V782.008Z" fill="white" stroke="#263238" stroke-linecap="round" stroke-linejoin="round"/>
<path d="M1093.17 782.008H1063.04V992.888H1093.17V782.008Z" fill="#CCCCCC" stroke="#263238" stroke-linecap="round" stroke-linejoin="round"/>
<path d="M1119 782.008H1088.86V992.888H1119V782.008Z" fill="white" stroke="#263238" stroke-linecap="round" stroke-linejoin="round"/>
<path d="M1054.44 782.008H1024.31V992.888H1054.44V782.008Z" fill="#CCCCCC" stroke="#263238" stroke-linecap="round" stroke-linejoin="round"/>
<path d="M1080.26 782.008H1050.13V992.888H1080.26V782.008Z" fill="white" stroke="#263238" stroke-linecap="round" stroke-linejoin="round"/>
<path d="M1185.69 782.008H1155.56V992.888H1185.69V782.008Z" fill="#CCCCCC" stroke="#263238" stroke-linecap="round" stroke-linejoin="round"/>
<path d="M1211.51 782.008H1181.38V992.888H1211.51V782.008Z" fill="white" stroke="#263238" stroke-linecap="round" stroke-linejoin="round"/>
<path d="M932.743 316.171C930.409 314.346 927.52 313.378 924.558 313.427C921.596 313.476 918.74 314.541 916.469 316.442L734.501 468.087V501.692L924.985 342.941L1128.27 501.339V468.629L932.743 316.171Z" fill="#B2B2B2" stroke="#263238" stroke-linecap="round" stroke-linejoin="round"/>
<path d="M1118.48 793.996H744.943V475.79L924.796 326.369L1118.48 475.79V793.996Z" fill="white" stroke="#263238" stroke-linecap="round" stroke-linejoin="round"/>
<path d="M946.847 793.996H1069.5V674.438L946.847 590.52V793.996Z" fill="#CCCCCC" stroke="#263238" stroke-linecap="round" stroke-linejoin="round"/>
<path d="M927.562 793.996H554.025V475.79L733.878 326.369L927.562 475.79V793.996Z" fill="#CCCCCC" stroke="#263238" stroke-linecap="round" stroke-linejoin="round"/>
<path d="M629.59 411.915H837.596" stroke="#263238" stroke-linecap="round" stroke-linejoin="round"/>
<path d="M553.075 487.235H1114.93" stroke="#263238" stroke-linecap="round" stroke-linejoin="round"/>
<path d="M553.075 562.529H1116.66" stroke="#263238" stroke-linecap="round" stroke-linejoin="round"/>
<path d="M553.075 637.849H946.846" stroke="#263238" stroke-linecap="round" stroke-linejoin="round"/>
<path d="M553.075 713.169H948.175" stroke="#263238" stroke-linecap="round" stroke-linejoin="round"/>
<path d="M735.694 323.657H926.613L1124.83 476.305H933.909L735.694 323.657Z" fill="white" stroke="#263238" stroke-linecap="round" stroke-linejoin="round"/>
<path d="M792.815 362.253H975.733" stroke="#263238" stroke-linecap="round" stroke-linejoin="round"/>
<path d="M843.942 401.093H1025.61" stroke="#263238" stroke-linecap="round" stroke-linejoin="round"/>
<path d="M895.042 439.906H1076.14" stroke="#263238" stroke-linecap="round" stroke-linejoin="round"/>
<path d="M933.692 465.7L741.824 316.171C739.491 314.347 736.602 313.378 733.64 313.427C730.678 313.477 727.822 314.541 725.551 316.443L544.288 467.49V501.096L734.149 342.942L933.692 498.437V465.7Z" fill="#B2B2B2" stroke="#263238" stroke-linecap="round" stroke-linejoin="round"/>
<path d="M1228.55 689.6L1089.03 600.419V553.931L1228.55 643.111V689.6Z" fill="#B2B2B2" stroke="#263238" stroke-linecap="round" stroke-linejoin="round"/>
<path d="M1063.04 793.996H1220.11V674.438L1063.04 590.52V793.996Z" fill="white" stroke="#263238" stroke-linecap="round" stroke-linejoin="round"/>
<path d="M1080.37 674.546H1226.67L1097.46 590.52H946.847L1080.37 674.546Z" fill="white" stroke="#263238" stroke-linecap="round" stroke-linejoin="round"/>
<path d="M1078.99 689.6L939.496 600.419V553.931L1078.99 643.111V689.6Z" fill="#B2B2B2" stroke="#263238" stroke-linecap="round" stroke-linejoin="round"/>
<path d="M796.233 619.704H669.271V793.996H796.233V619.704Z" fill="#263238" stroke="#263238" stroke-linecap="round" stroke-linejoin="round"/>
<path d="M796.233 449.697H669.271V623.989H796.233V449.697Z" fill="#CCCCCC" stroke="#263238" stroke-linecap="round" stroke-linejoin="round"/>
<path d="M796.233 473.837H669.271V497.976H796.233V473.837Z" fill="#B2B2B2" stroke="#263238" stroke-linecap="round" stroke-linejoin="round"/>
<path d="M669.135 793.996H798.24L708.137 992.888H579.032L669.135 793.996Z" fill="white" stroke="#263238" stroke-linecap="round" stroke-linejoin="round"/>
<path d="M656.034 822.882H785.139L777.355 840.105H648.25L656.034 822.882Z" fill="#CCCCCC" stroke="#263238" stroke-linecap="round" stroke-linejoin="round"/>
<path d="M629.725 880.979H758.831L751.019 898.202H621.914L629.725 880.979Z" fill="#CCCCCC" stroke="#263238" stroke-linecap="round" stroke-linejoin="round"/>
<path d="M603.389 939.076H732.494L724.71 956.299H595.604L603.389 939.076Z" fill="#CCCCCC" stroke="#263238" stroke-linecap="round" stroke-linejoin="round"/>
<path d="M462.241 1145.94C694.425 1145.94 882.647 1120.44 882.647 1088.98C882.647 1057.53 694.425 1032.03 462.241 1032.03C230.058 1032.03 41.8359 1057.53 41.8359 1088.98C41.8359 1120.44 230.058 1145.94 462.241 1145.94Z" fill="#57E089"/>
<path opacity="0.5" d="M462.241 1145.94C694.425 1145.94 882.647 1120.44 882.647 1088.98C882.647 1057.53 694.425 1032.03 462.241 1032.03C230.058 1032.03 41.8359 1057.53 41.8359 1088.98C41.8359 1120.44 230.058 1145.94 462.241 1145.94Z" fill="white"/>
<path d="M616.842 595.347C616.842 595.347 646.134 607.2 668.375 609.288C690.616 611.377 724.845 595.347 730.432 566.054C736.02 536.761 717.169 481.702 710.904 469.849C704.639 457.996 666.965 374.322 646.053 356.204C625.141 338.086 590.966 327.589 583.996 324.823C577.025 322.056 581.907 348.528 580.524 365.263C579.141 381.998 579.114 467.055 579.114 467.055L574.231 578.612C574.231 578.612 599.971 588.322 616.842 595.347Z" fill="white"/>
<path d="M715.976 481.946C712.496 481.488 708.989 481.27 705.479 481.295C701.058 469.714 695.986 457.644 690.616 446.035C692.65 444.299 694.712 442.645 696.8 441.018L694.332 436C692.271 437.573 690.236 439.2 688.202 440.882C681.054 425.498 672.9 410.603 663.792 396.292C665.148 392.495 666.504 388.996 667.534 385.85C666.314 383.815 665.121 381.808 663.927 379.882C662.788 383.029 661.459 386.663 660.021 390.732C656.867 386.027 653.231 381.664 649.172 377.713C644.596 373.558 639.739 369.725 634.634 366.24C636.262 360.435 637.753 355.291 639.11 350.807C637.591 349.722 636.018 348.664 634.417 347.633C633.061 352.054 631.542 357.235 629.888 363.066C615.477 353.951 599.988 346.662 583.779 341.368L582.179 346.548C598.409 351.967 613.899 359.393 628.288 368.654C626.172 376.519 623.894 385.334 621.697 394.854C612.329 390 602.264 386.633 591.861 384.873L591.129 390.298C601.373 391.986 611.287 395.282 620.503 400.062C618.171 410.423 615.974 421.516 614.048 432.989C607.31 427.464 600.275 422.312 592.974 417.556L590.071 422.14C598.061 427.386 605.732 433.1 613.045 439.255C611.282 450.511 609.844 462.038 608.922 473.592C602.393 468.558 595.493 464.025 588.281 460.031L585.732 464.804C593.723 469.32 601.325 474.491 608.461 480.264C607.973 488.239 607.701 496.213 607.81 504.024H613.234C613.234 497.677 613.234 491.222 613.641 484.713C618.277 488.809 622.577 493.271 626.497 498.057C625.575 501.909 624.789 505.57 624.111 508.906L627.447 509.557C622.022 517.287 618.686 522.549 618.171 523.363L622.755 526.238L624.843 523.037L625.006 523.173C625.006 523.173 626.199 522.115 628.125 520.461V521.057C634.201 522.611 640.06 524.916 645.565 527.919L640.14 530.415C591.617 552.466 579.276 555.531 579.168 555.558L580.388 560.847C580.877 560.847 592.974 557.809 642.364 535.351C645.42 533.977 648.295 532.621 650.989 531.283C660.068 537.08 667.134 545.539 671.223 555.503H670.871C665.685 556.253 660.582 557.488 655.627 559.192C639.896 565.322 591.753 569.824 591.265 569.879L591.78 575.303C593.787 575.113 641.171 570.692 657.607 564.291C662.229 562.713 666.987 561.569 671.82 560.874L672.959 560.657C674.136 565.145 674.719 569.768 674.695 574.408C674.701 577.506 674.547 580.602 674.234 583.684C672.39 584.2 670.572 584.661 668.809 585.013C656.794 587.264 627.881 589.895 607.918 591.55L616.842 595.347L619.12 596.242C637.699 594.615 659.56 592.472 669.867 590.546C671.088 590.302 672.335 590.031 673.556 589.733C672.431 596.575 670.029 603.144 666.477 609.098L668.457 609.288C669.809 609.421 671.167 609.484 672.525 609.478C676.03 602.781 678.325 595.518 679.306 588.024C692.92 583.664 704.739 574.979 712.965 563.288C713.264 564.237 713.562 565.214 713.779 566.19C716.458 576.086 715.496 586.616 711.067 595.862C714.116 593.558 716.933 590.96 719.475 588.105C721.192 580.466 721.08 572.53 719.149 564.942C718.502 562.248 717.668 559.601 716.654 557.022C718.582 553.062 719.986 548.868 720.831 544.546C722.73 534.565 717.034 512.215 707.758 486.882C711.276 486.907 714.786 487.215 718.254 487.805C717.332 485.689 716.627 483.763 715.976 481.946ZM699.838 481.566C695.147 481.955 690.494 482.717 685.924 483.845C682.913 477.715 678.899 469.741 674.369 461.17C678.248 457.21 682.262 453.359 686.358 449.67C691.213 460.248 695.797 471.097 699.838 481.566ZM671.359 513.409C664.444 510.11 657.268 507.388 649.905 505.272C653.349 503.183 657.065 501.122 660.998 499.142C661.128 499.395 661.236 499.658 661.323 499.929C661.268 499.615 661.268 499.293 661.323 498.979L662.924 498.193L663.846 499.522L662.354 501.773L664.307 502.993L665.88 501.448C666.748 500.58 667.317 500.01 665.88 496.809C671.456 494.247 677.212 492.099 683.103 490.381C684.785 493.826 685.951 496.267 686.439 497.325C686.141 498.708 684.242 504.377 671.359 513.409V513.409ZM690.942 501.014C696.115 504.4 700.063 509.361 702.202 515.163C704.342 520.965 704.559 527.301 702.821 533.236C702.659 533.887 702.469 534.456 702.279 535.053C694.856 527.418 686.269 521.009 676.838 516.067C685.761 509.557 689.477 504.458 690.942 501.014V501.014ZM653.268 476.142C652.21 474.487 651.071 472.779 649.85 470.907C647.543 467.422 645.063 464.054 642.419 460.817C645.348 451.27 648.467 441.56 651.559 432.203C656.984 440.855 662.571 450.728 667.643 460.166C662.571 465.428 657.77 470.826 653.268 476.142V476.142ZM670.382 465.293C674.315 472.751 677.814 479.668 680.553 485.228C674.61 487.012 668.8 489.215 663.168 491.819C661.622 489.107 659.425 485.635 656.414 480.97C660.781 475.789 665.473 470.582 670.382 465.32V465.293ZM652.752 485.364C655.221 489.242 656.984 492.117 658.177 494.206C650.124 498.313 642.391 503.019 635.041 508.282C639.896 501.692 645.89 493.745 652.752 485.391V485.364ZM661.622 402.774C669.854 416.259 677.307 430.205 683.944 444.544C679.74 448.259 675.617 452.138 671.63 456.152C666.016 445.764 659.804 434.888 653.756 425.666C656.495 417.448 659.181 409.691 661.622 402.774ZM633.115 371.718C637.455 374.771 641.603 378.086 645.538 381.645C650.231 386.263 654.389 391.395 657.933 396.943C655.492 403.886 652.78 411.643 649.986 419.916C646.68 414.947 642.852 410.347 638.567 406.192C634.9 402.906 630.932 399.973 626.715 397.431C628.803 388.155 631 379.476 633.115 371.718ZM625.44 403.073C628.805 405.17 631.981 407.557 634.933 410.206C639.831 415.124 644.153 420.584 647.816 426.48C644.616 436.054 641.361 446.09 638.269 456.044C632.217 449.358 625.739 443.07 618.876 437.22C620.775 425.286 623.026 413.813 625.413 403.073H625.44ZM628.152 491.493C623.832 486.62 619.144 482.087 614.129 477.932C614.916 466.405 616.245 454.877 617.927 443.594C624.519 449.337 630.701 455.537 636.424 462.146C633.251 472.317 630.403 482.326 628.098 491.493H628.152ZM632.302 497.216L632.627 496.972L632.437 496.728C634.634 487.642 637.455 477.579 640.574 467.164C642.283 469.361 643.91 471.612 645.402 473.891C646.894 476.169 648.413 478.474 649.688 480.481C642.147 489.622 635.584 498.328 630.457 505.489C630.918 502.858 631.569 500.064 632.248 497.216H632.302ZM632.844 516.88C635.936 514.494 639.896 511.646 644.48 508.744L644.317 509.476C651.761 511.36 659.022 513.902 666.016 517.07C661.947 519.62 657.065 522.359 651.234 525.207C645.433 521.719 639.243 518.924 632.79 516.88H632.844ZM656.306 528.706C662.408 525.506 667.507 522.522 671.711 519.755C682.346 524.952 691.935 532.059 700.001 540.722C695.091 549.699 686.439 552.628 676.675 554.581C672.556 544.137 665.453 535.138 656.251 528.706H656.306ZM679.903 582.003C680.065 579.643 680.174 577.175 680.174 574.544C680.198 569.565 679.568 564.604 678.302 559.789C688.012 557.755 697.695 554.5 703.689 545.197C706.401 548.779 708.686 552.666 710.497 556.778C703.561 568.525 692.71 577.456 679.848 582.003H679.903ZM715.325 543.488C714.878 545.805 714.243 548.082 713.426 550.296C711.405 546.563 709.035 543.03 706.347 539.745C707.042 538.044 707.613 536.294 708.056 534.51C710.044 526.991 709.47 519.024 706.425 511.868C703.379 504.711 698.036 498.773 691.24 494.992C690.725 493.907 689.775 491.846 688.528 489.134C692.985 488.094 697.521 487.422 702.089 487.127C711.257 511.998 717.197 534.022 715.271 543.488H715.325Z" fill="#CCCCCC"/>
<path d="M616.842 595.347C616.842 595.347 646.134 607.2 668.375 609.288C690.616 611.377 724.845 595.347 730.432 566.054C736.02 536.761 717.169 481.702 710.904 469.849C704.639 457.996 666.965 374.322 646.053 356.204C625.141 338.086 590.966 327.589 583.996 324.823C577.025 322.056 581.907 348.528 580.524 365.263C579.141 381.998 579.114 467.055 579.114 467.055L574.231 578.612C574.231 578.612 599.971 588.322 616.842 595.347Z" stroke="#263238" stroke-linecap="round" stroke-linejoin="round"/>
<path d="M652.264 505.353C652.264 505.353 685.055 480.237 710.144 514.412" stroke="#263238" stroke-linecap="round" stroke-linejoin="round"/>
<path d="M418.655 138C417.244 140.333 417.977 100.408 429.287 81.042C433.084 74.5596 467.801 62.4085 501.352 70.1928C534.904 77.9771 549.279 94.7662 550.472 102.55C551.665 110.335 546.322 160.187 546.322 160.187C546.322 160.187 492.348 129.022 418.655 138Z" fill="#57E089" stroke="#263238" stroke-linecap="round" stroke-linejoin="round"/>
<path d="M596.034 188.529C598.656 163.019 549.142 137.029 485.44 130.48C421.738 123.931 367.971 139.302 365.349 164.812C362.726 190.323 412.24 216.313 475.942 222.862C539.644 229.411 593.411 214.04 596.034 188.529Z" fill="#A6A6A6" stroke="#263238" stroke-linecap="round" stroke-linejoin="round"/>
<path d="M351.932 311.451C351.932 311.451 307.64 325.935 286.837 343.104C266.033 360.273 190.116 430.792 156.647 454.308C123.177 477.823 110.538 516.691 127.734 545.631C144.93 574.571 178.345 581.786 200.043 576.361C221.742 570.936 248.865 539.284 273.275 524.827C297.686 510.371 316.672 484.143 316.672 484.143C316.672 484.143 329.338 392.82 333.868 365.697C338.397 338.574 355.566 315.086 355.566 315.086C355.566 315.086 355.566 308.739 351.932 311.451Z" fill="white"/>
<path d="M308.047 362.388C309.403 347.525 310.759 335.455 311.871 327.806C309.919 328.756 307.966 329.759 306.04 330.79C304.955 339.307 303.545 351.539 302.27 366.05C293.527 371.825 285.297 378.34 277.669 385.524C273.601 389.43 268.99 393.39 264.108 397.35C263.457 383.191 263.077 371.664 262.86 364.07L257.436 368.762C257.68 376.899 258.087 388.128 258.738 401.31C247.075 410.179 233.73 419.102 220.331 427.917C217.863 419.997 215.612 413.054 213.741 407.304L209.292 411.182C211.137 416.824 213.28 423.496 215.612 431.036L212.249 433.233C201.915 439.987 191.961 446.523 183.01 452.789C180.062 450.275 176.873 448.059 173.49 446.171C172.215 445.466 170.995 444.869 169.801 444.354C168.093 445.683 166.438 447.066 164.838 448.178C167.044 448.967 169.176 449.947 171.212 451.107C173.76 452.577 176.182 454.255 178.454 456.125C172.622 460.329 167.306 464.397 162.831 468.276C157.346 472.934 152.471 478.265 148.32 484.143C141.628 483.553 134.884 484.066 128.358 485.662C127.218 487.832 126.188 490.029 125.266 492.253C131.611 490.246 138.252 489.338 144.903 489.568C132.046 511.998 134.053 538.389 151.06 567.031C151.3 567.436 151.641 567.771 152.05 568.004C152.459 568.237 152.921 568.36 153.392 568.36C153.88 568.368 154.36 568.236 154.775 567.98C155.394 567.613 155.841 567.015 156.019 566.319C156.197 565.622 156.091 564.883 155.725 564.264C139.451 536.626 137.878 511.402 151.032 490.137C153.219 490.454 155.384 490.907 157.515 491.493C165.396 493.729 172.766 497.479 179.213 502.532C178.454 503.834 177.694 505.245 177.043 506.465C162.641 535.134 183.661 553.035 183.878 553.225C184.152 553.453 184.469 553.626 184.809 553.731C185.15 553.837 185.508 553.875 185.864 553.842C186.219 553.81 186.564 553.707 186.88 553.541C187.195 553.374 187.475 553.147 187.703 552.872C187.931 552.598 188.103 552.282 188.209 551.941C188.315 551.601 188.353 551.242 188.32 550.887C188.287 550.532 188.185 550.187 188.018 549.871C187.852 549.556 187.625 549.276 187.35 549.048C187.16 548.885 169.395 533.751 181.925 508.906C182.387 507.957 182.956 507.008 183.499 506.031C192.152 513.937 199.591 523.076 205.577 533.154C204.9 537.387 205.292 541.723 206.716 545.766C206.943 546.218 207.292 546.597 207.724 546.86C208.155 547.124 208.651 547.262 209.157 547.258C209.579 547.264 209.997 547.171 210.377 546.987C210.863 546.733 211.26 546.338 211.517 545.854C211.773 545.369 211.877 544.819 211.815 544.275C214.274 548.994 216.679 554.021 219.03 559.355C219.241 559.84 219.59 560.253 220.034 560.542C220.477 560.831 220.996 560.984 221.525 560.982C221.9 560.977 222.269 560.894 222.61 560.738C223.262 560.447 223.772 559.911 224.031 559.246C224.29 558.581 224.276 557.84 223.993 557.185C220.237 548.477 215.915 540.024 211.055 531.879C211.911 526.278 213.478 520.809 215.721 515.606C221.156 529.803 225.801 544.291 229.635 559.002C231.181 557.809 232.7 556.561 234.246 555.286C230.088 539.566 224.952 524.121 218.867 509.042C222.585 502.177 227.141 495.8 232.428 490.056C237.202 508.282 241.704 527.485 245.285 546.173L250.058 542.213C246.315 523.227 241.677 503.834 236.849 485.499C239.128 483.275 241.569 481.078 244.2 478.935C250.157 474.179 256.427 469.83 262.969 465.916C263.701 474.596 264.515 483.465 265.437 492.361C257.806 496.852 250.709 502.193 244.281 508.282C243.776 508.791 243.492 509.478 243.492 510.195C243.492 510.911 243.776 511.599 244.281 512.107C244.533 512.361 244.833 512.563 245.164 512.7C245.494 512.838 245.849 512.909 246.207 512.909C246.565 512.909 246.919 512.838 247.25 512.7C247.58 512.563 247.88 512.361 248.133 512.107C253.604 506.897 259.625 502.295 266.088 498.383C267.119 508.093 268.312 517.83 269.614 527.404C270.834 526.59 272.082 525.804 273.303 525.071L274.632 524.231C273.357 514.656 272.218 504.946 271.187 495.263C280.694 489.769 290.471 484.754 300.48 480.237C301.049 487.235 301.809 494.124 302.758 500.796C304.467 498.979 306.067 497.216 307.532 495.589C306.799 489.812 306.176 483.899 305.714 477.878C310.325 475.843 314.638 474.026 318.354 472.453C318.625 470.527 318.923 468.466 319.249 466.215C315.289 467.788 310.542 469.741 305.308 472.019C304.738 462.987 304.44 453.82 304.331 444.652C311.356 441.533 317.893 438.821 323.317 436.515C323.589 434.454 323.887 432.392 324.185 430.277C318.571 432.501 311.709 435.295 304.196 438.576C304.196 429.219 304.385 419.916 304.738 410.884C314.394 405.025 322.612 400.17 329.149 396.346C329.501 393.986 329.854 391.681 330.179 389.457C323.805 393.173 315.343 398.19 305.064 404.374C305.66 391.925 306.474 379.964 307.396 369.413C317.012 363.201 326.973 357.542 337.231 352.461C338.018 349.912 338.886 347.471 339.808 345.084C328.9 350.241 318.295 356.019 308.047 362.388V362.388ZM259.063 408.199C259.443 415.603 259.904 423.55 260.446 431.877C248.512 439.444 237.717 446.632 227.899 453.575C225.837 446.496 223.83 439.77 221.905 433.559C234.815 425.123 247.617 416.58 259.063 408.199ZM215.205 438.034C215.91 437.6 216.589 437.139 217.267 436.678C219.219 443.025 221.254 449.832 223.342 457.02C215.768 462.629 208.524 468.669 201.644 475.111C197.487 468.507 192.621 462.377 187.133 456.83C195.704 450.755 205.305 444.462 215.205 438.034ZM182.034 497.704C175.164 492.381 167.338 488.423 158.979 486.042C157.461 485.635 155.969 485.309 154.504 485.011C157.99 480.368 161.973 476.12 166.384 472.344C170.968 468.385 176.501 464.208 182.658 459.814C188.421 465.514 193.475 471.888 197.711 478.8C191.85 484.546 186.597 490.881 182.034 497.704V497.704ZM206.906 525.153C201.148 516.259 194.214 508.184 186.292 501.149C190.459 494.83 195.258 488.95 200.613 483.601C205.274 491.66 209.388 500.024 212.927 508.635C210.314 513.938 208.294 519.514 206.906 525.261V525.153ZM216.182 502.614C212.768 494.787 208.891 487.17 204.573 479.803C211.057 473.706 217.876 467.974 224.997 462.635C226.922 469.388 228.875 476.413 230.801 483.655C225.182 489.402 220.274 495.804 216.182 502.722V502.614ZM240.755 474.379C238.802 475.952 236.985 477.552 235.33 479.179C233.459 472.263 231.588 465.618 229.716 459.027C239.128 452.111 249.57 445.086 260.962 437.817C261.414 444.851 261.947 452.084 262.562 459.515C254.941 463.973 247.653 468.977 240.755 474.487V474.379ZM266.061 434.508L272.326 430.575C282.145 424.482 291.131 418.958 299.286 414.003C298.988 422.764 298.825 431.741 298.88 440.773C288.817 445.33 277.995 450.646 267.634 456.505C266.956 449.073 266.522 441.723 266.061 434.617V434.508ZM270.563 488.971C269.641 480.047 268.854 471.178 268.122 462.499C278.185 456.722 288.898 451.378 298.934 446.795C298.934 455.935 299.395 465.076 300.019 474.08C290.634 478.42 280.246 483.492 270.563 489.079V488.971ZM299.53 407.602C290.607 413.027 280.544 419.156 269.478 426.046L265.654 428.432C265.111 419.807 264.677 411.643 264.298 404.022C270.256 399.462 275.978 394.601 281.439 389.457C287.766 383.532 294.529 378.092 301.673 373.183C300.805 383.788 300.046 395.451 299.503 407.629L299.53 407.602Z" fill="#CCCCCC"/>
<path d="M351.932 311.451C351.932 311.451 307.64 325.935 286.837 343.104C266.033 360.273 190.116 430.792 156.647 454.308C123.177 477.823 110.538 516.691 127.734 545.631C144.93 574.571 178.345 581.786 200.043 576.361C221.742 570.936 248.865 539.284 273.275 524.827C297.686 510.371 316.672 484.143 316.672 484.143C316.672 484.143 329.338 392.82 333.868 365.697C338.397 338.574 355.566 315.086 355.566 315.086C355.566 315.086 355.566 308.739 351.932 311.451Z" stroke="#263238" stroke-linecap="round" stroke-linejoin="round"/>
<path d="M152.145 518.508C146.187 518.064 140.231 519.39 135.025 522.319C129.818 525.248 125.593 529.65 122.879 534.971C124.115 538.687 125.742 542.26 127.734 545.631C135.622 558.93 147.987 568.987 162.614 574.001C175.823 568.902 185.587 559.436 185.587 551.055C185.587 540.206 181.058 519.403 152.145 518.508Z" fill="white" stroke="#263238" stroke-linecap="round" stroke-linejoin="round"/>
<path d="M334.763 1029.94L302.704 1059.77C292.289 1069.46 282.579 1078.41 282.579 1085.11C282.579 1091.81 278.863 1100.76 284.07 1105.23C289.278 1109.71 313.146 1114.94 336.255 1114.94C354.331 1114.64 371.737 1108.05 385.483 1096.31C394.406 1088.85 395.166 1079.14 404.849 1074.61C414.532 1070.08 431.701 1070.89 434.684 1059.72C437.668 1048.54 433.192 1031.38 433.192 1031.38L334.763 1029.94Z" fill="#878787" stroke="#263238" stroke-linecap="round" stroke-linejoin="round"/>
<path d="M434.629 1059.77C435.316 1056.92 435.653 1054 435.633 1051.07C424.377 1060.23 400.807 1069.78 393.538 1076.21C385.076 1083.7 377.59 1102.57 335.576 1104.85C300.317 1106.78 285.589 1096.39 281.683 1092.92C281.005 1097.69 280.679 1102.38 284.016 1105.23C289.25 1109.71 313.091 1114.94 336.2 1114.94C354.276 1114.64 371.683 1108.05 385.428 1096.31C394.352 1088.85 395.111 1079.14 404.794 1074.61C414.477 1070.08 431.646 1070.95 434.629 1059.77Z" fill="#263238" stroke="#263238" stroke-linecap="round" stroke-linejoin="round"/>
<path d="M573.444 1029.94L605.504 1059.77C615.946 1069.46 625.629 1078.41 625.629 1085.11C625.629 1091.81 629.345 1100.76 624.137 1105.23C618.929 1109.71 595.061 1114.94 571.952 1114.94C553.884 1114.64 536.486 1108.05 522.751 1096.31C513.801 1088.85 513.069 1079.14 503.359 1074.61C493.649 1070.08 476.534 1070.89 473.523 1059.72C470.513 1048.54 475.015 1031.38 475.015 1031.38L573.444 1029.94Z" fill="#878787" stroke="#263238" stroke-linecap="round" stroke-linejoin="round"/>
<path d="M473.524 1059.77C472.828 1056.92 472.482 1054 472.493 1051.07C483.777 1060.23 507.319 1069.78 514.588 1076.21C523.078 1083.7 530.564 1102.57 572.55 1104.85C607.81 1106.78 622.537 1096.39 626.47 1092.92C627.121 1097.69 627.447 1102.38 624.111 1105.23C618.903 1109.71 595.035 1114.94 571.926 1114.94C553.858 1114.64 536.46 1108.05 522.725 1096.31C513.775 1088.85 513.042 1079.14 503.332 1074.61C493.622 1070.08 476.508 1070.95 473.524 1059.77Z" fill="#263238" stroke="#263238" stroke-linecap="round" stroke-linejoin="round"/>
<path d="M444.61 286.146C444.61 286.146 374.66 305.62 355.674 311.044C336.688 316.469 326.626 356.665 323.913 402.774C321.201 448.883 307.64 611.621 306.283 618.401C304.927 625.182 289.494 687.565 293.563 709.263C297.631 730.962 336.119 991.342 336.119 991.342C336.119 991.342 325.27 1007.62 327.982 1011.68C330.694 1015.75 332.05 1036.09 332.05 1036.09C332.05 1036.09 365.954 1048.3 387.652 1048.3C409.351 1048.3 436.474 1040.16 436.474 1040.16C436.474 1040.16 429.693 989.986 432.405 960.15C435.117 930.315 435.117 735.03 435.117 735.03L462.24 1044.23C462.24 1044.23 494.788 1053.72 523.267 1052.37C551.746 1051.01 581.581 1034.74 581.581 1034.74C581.581 1034.74 585.65 1011.68 582.937 1000.83C580.225 989.986 563.951 971 563.951 964.219C563.951 957.438 577.513 730.962 577.513 730.962C577.513 730.962 585.65 667.223 584.294 634.675C582.937 602.128 585.65 526.183 585.65 526.183C585.65 526.183 591.074 457.02 595.143 417.692C599.211 378.363 600.35 343.104 598.994 334.967C597.638 326.83 531.404 299.707 515.13 294.282C498.856 288.858 464.953 287.502 444.61 286.146Z" fill="white"/>
<path d="M594.059 428.514C588.905 426.236 583.616 424.12 578.138 422.167L580.063 390.894C584.566 392.929 591.835 395.804 596.337 398.109L596.066 392.684C590.93 389.99 585.741 387.495 580.497 385.199L582.694 349.695C588.119 352.244 593.272 354.956 598.398 357.831L599.483 355.933C599.483 354.685 599.483 353.465 599.483 352.298C594.059 349.261 588.562 346.44 582.993 343.836L584.294 324.118C582.613 323.223 580.877 322.328 579.033 321.405L577.785 341.531C570.245 338.222 562.569 335.292 554.785 332.689L557.931 311.56L552.805 309.309L549.55 331.007C535.634 326.647 521.445 323.213 507.075 320.727L510.493 293.116C508.838 292.709 507.048 292.303 505.068 291.95L501.624 319.805C486.557 317.409 471.374 315.815 456.139 315.032L458.851 287.203L453.426 286.878L450.714 314.76C435.932 314.164 421.611 314.245 408.104 314.76C408.592 307.708 409.026 301.416 409.406 296.1L403.846 297.646C403.493 302.718 403.086 308.495 402.652 315.004C388.141 315.737 374.634 316.984 362.564 318.422C363.161 315.004 363.731 311.777 364.273 308.739L358.469 310.366C357.981 313.079 357.465 316.035 356.95 319.1C352.095 319.724 347.538 320.375 343.253 321.053C341.922 322.895 340.717 324.825 339.646 326.83C344.663 326.043 350.142 325.203 355.919 324.443C354.048 335.781 352.149 348.854 350.495 363.365C341.626 364.721 333.977 366.077 327.739 367.297C327.413 369.106 327.115 371.004 326.844 372.993C332.973 371.773 340.73 370.281 349.817 368.952C348.732 378.228 347.701 388.074 346.779 398.435C338.018 398.869 330.505 399.357 324.104 399.791C324.104 400.767 324.104 401.716 323.914 402.666C323.724 403.615 323.914 404.374 323.752 405.378C329.963 404.917 337.557 404.429 346.291 403.995C341.804 456.564 341.314 509.397 344.826 562.04L350.251 561.66C346.748 509.052 347.265 456.253 351.797 403.724C364.897 403.154 380.167 402.747 396.766 402.774C393.81 448.259 390.854 496.24 389.335 528.353L394.759 528.625C396.278 496.457 399.235 448.368 402.218 402.774C414.83 402.774 428.148 403.208 441.818 403.94L431.348 508.554L436.773 509.096L447.242 404.347C461.509 405.188 476.101 406.463 490.639 408.253L480.793 487.479L486.218 488.157L496.064 408.958C509.842 410.803 523.539 413.135 536.748 416.092L522.807 509.666L528.231 510.452L542.145 417.312C552.615 419.807 562.786 422.737 572.523 426.019L566.122 529.655L571.547 530.008L577.866 427.89C583.291 429.861 588.535 432.004 593.598 434.318C593.706 432.257 593.869 430.358 594.059 428.514ZM506.316 325.908C520.652 328.418 534.805 331.88 548.682 336.269L543.257 371.691C529.588 367.786 515.693 364.715 501.651 362.497L506.316 325.908ZM397.146 397.35C380.628 397.35 365.412 397.729 352.285 398.299C353.234 387.721 354.319 377.685 355.431 368.22C368.125 366.402 383.015 364.721 399.397 363.69C398.611 374.512 397.851 385.822 397.146 397.35ZM399.858 358.265C383.585 359.269 368.884 360.978 356.218 362.659C358.035 348.122 359.961 335.102 361.832 323.819C373.983 322.355 387.68 321.107 402.516 320.293C401.513 331.549 400.645 344.433 399.696 358.265H399.858ZM588.851 486.855C496.118 442.97 367.582 445.222 320.741 447.798C320.596 449.607 320.461 451.415 320.334 453.223C366.443 450.511 496.172 448.07 588.363 492.578C588.526 490.815 588.688 488.89 588.851 486.855ZM442.387 398.489C428.636 397.756 415.264 397.404 402.598 397.295C403.357 385.633 404.117 374.214 404.849 363.283C417.814 362.605 431.619 362.334 445.967 362.741L442.387 398.489ZM446.51 357.343C432.108 356.936 418.248 357.208 405.229 357.859C406.151 344.053 407.019 331.17 407.805 319.887C421.367 319.344 435.525 319.236 450.253 319.887L446.51 357.343ZM491.29 402.774C476.698 400.957 462.051 399.682 447.758 398.841L451.392 362.985C466.253 363.552 481.073 364.901 495.792 367.026L491.29 402.774ZM451.88 357.587L455.623 320.185C470.814 320.967 485.952 322.561 500.973 324.959L496.416 361.656C481.65 359.544 466.785 358.195 451.88 357.615V357.587ZM537.562 410.613C524.244 407.656 510.439 405.188 496.687 403.479L501.108 367.84C515.113 370.048 528.964 373.138 542.579 377.089L537.562 410.613ZM572.821 420.296C563.193 417.068 553.184 414.247 542.986 411.833L547.95 378.662C557.089 381.493 566.079 384.788 574.883 388.535L572.821 420.296ZM575.127 382.812C566.429 379.195 557.596 376.004 548.628 373.237L553.89 337.978C561.846 340.672 569.666 343.737 577.351 347.172L575.127 382.812Z" fill="#CCCCCC"/>
<path d="M444.61 286.146C444.61 286.146 374.66 305.62 355.674 311.044C336.688 316.469 326.626 356.665 323.913 402.774C321.201 448.883 307.64 611.621 306.283 618.401C304.927 625.182 289.494 687.565 293.563 709.263C297.631 730.962 336.119 991.342 336.119 991.342C336.119 991.342 325.27 1007.62 327.982 1011.68C330.694 1015.75 332.05 1036.09 332.05 1036.09C332.05 1036.09 365.954 1048.3 387.652 1048.3C409.351 1048.3 436.474 1040.16 436.474 1040.16C436.474 1040.16 429.693 989.986 432.405 960.15C435.117 930.315 435.117 735.03 435.117 735.03L462.24 1044.23C462.24 1044.23 494.788 1053.72 523.267 1052.37C551.746 1051.01 581.581 1034.74 581.581 1034.74C581.581 1034.74 585.65 1011.68 582.937 1000.83C580.225 989.986 563.951 971 563.951 964.219C563.951 957.438 577.513 730.962 577.513 730.962C577.513 730.962 585.65 667.223 584.294 634.675C582.937 602.128 585.65 526.183 585.65 526.183C585.65 526.183 591.074 457.02 595.143 417.692C599.211 378.363 600.35 343.104 598.994 334.967C597.638 326.83 531.404 299.707 515.13 294.282C498.856 288.858 464.953 287.502 444.61 286.146Z" stroke="#263238" stroke-linecap="round" stroke-linejoin="round"/>
<path d="M451.066 332.553L439.62 442.564" stroke="#263238" stroke-linecap="round" stroke-linejoin="round"/>
<path d="M435.117 735.03L462.24 1044.23C462.24 1044.23 494.788 1053.72 523.267 1052.37C551.746 1051.01 581.581 1034.74 581.581 1034.74C581.581 1034.74 585.65 1011.68 582.937 1000.83C580.225 989.986 563.951 971 563.951 964.219C563.951 957.438 577.513 730.962 577.513 730.962C577.513 730.962 585.65 667.223 584.294 634.675C584.131 631.068 584.049 626.891 583.995 622.389C581.283 613.682 568.806 573.567 559.015 531.418C547.949 483.763 536.286 437.871 536.286 437.871L370.836 424.31C363.187 422.601 362.347 431.118 362.347 431.118L311.681 558.595C308.969 591.143 306.663 616.069 306.256 618.646C304.927 625.182 289.494 687.565 293.563 709.263C297.631 730.962 336.119 991.342 336.119 991.342C336.119 991.342 325.27 1007.62 327.982 1011.68C330.694 1015.75 332.05 1036.09 332.05 1036.09C332.05 1036.09 365.954 1048.3 387.652 1048.3C409.351 1048.3 436.474 1040.16 436.474 1040.16C436.474 1040.16 429.693 989.986 432.405 960.151C435.117 930.315 435.117 735.03 435.117 735.03Z" fill="#57E089" stroke="#263238" stroke-linecap="round" stroke-linejoin="round"/>
<path d="M388.005 456.532L500.213 467.598L498.694 537.304C498.633 540.257 497.923 543.16 496.615 545.808C495.308 548.456 493.434 550.785 491.127 552.629L441.709 592.147C438.675 594.575 434.821 595.739 430.95 595.396C427.079 595.052 423.491 593.227 420.932 590.302L379.055 542.268C377.038 539.946 375.578 537.196 374.783 534.226C373.989 531.256 373.882 528.144 374.471 525.126L388.005 456.532Z" stroke="#263238" stroke-linecap="round" stroke-linejoin="round"/>
<path d="M397.362 632.668C397.362 632.668 429.693 642.866 473.09 634.35" stroke="#263238" stroke-linecap="round" stroke-linejoin="round"/>
<path d="M425.435 645.416L424.594 714.335L426.492 712.681C430.193 709.439 433.201 705.484 435.335 701.051C437.47 696.619 438.687 691.801 438.915 686.887L440.759 647.966" stroke="#263238" stroke-linecap="round" stroke-linejoin="round"/>
<path d="M400.753 724.561L449.249 737.309" stroke="#263238" stroke-linecap="round" stroke-linejoin="round"/>
<path d="M423.455 274.618C423.455 274.618 410.87 292.601 410.273 310.583C409.676 328.566 402.489 351.268 410.273 352.515C418.057 353.763 445.533 329.136 454.022 330.953C462.512 332.77 485.756 361.493 491.154 360.788C496.551 360.083 506.749 337.435 506.749 311.668C506.749 285.902 504.932 280.504 490.475 272.123C476.019 263.742 442.631 254.846 423.455 274.618Z" fill="white" stroke="#263238" stroke-linecap="round" stroke-linejoin="round"/>
<path d="M433.029 285.413C433.029 285.413 437.233 323.168 450.415 329.732C463.597 336.296 489.364 294.988 492.347 293.198C495.331 291.408 459.528 296.805 433.029 285.413Z" fill="#CCCCCC" stroke="#263238" stroke-linecap="round" stroke-linejoin="round"/>
<path d="M537.073 224.984C537.073 224.984 548.085 211.721 553.347 219.559C558.609 227.398 552.75 242.315 546.159 250.1C542.585 254.611 537.443 257.613 531.757 258.508L537.073 224.984Z" fill="white" stroke="#263238" stroke-linecap="round" stroke-linejoin="round"/>
<path d="M413.256 211.721C413.256 211.721 401.295 197.318 396.983 209.903C392.67 222.488 407.181 244.675 408.971 244.675H410.761L413.256 211.721Z" fill="white" stroke="#263238" stroke-linecap="round" stroke-linejoin="round"/>
<path d="M417.217 168.54C417.217 168.54 407.561 246.953 414.179 266.183C420.797 285.413 446.727 303.586 470.894 302.365C495.06 301.144 517.355 289.102 525.139 280.667C532.924 272.231 543.23 173.884 543.23 173.884C543.23 173.884 517.301 159.997 476.264 155.793C435.227 151.589 417.217 168.54 417.217 168.54Z" fill="white" stroke="#263238" stroke-linecap="round" stroke-linejoin="round"/>
<path d="M501.081 207.815C501.087 208.096 501.008 208.372 500.855 208.608C500.702 208.844 500.482 209.029 500.223 209.139C499.964 209.249 499.679 209.28 499.403 209.226C499.126 209.173 498.873 209.038 498.674 208.839C498.475 208.64 498.34 208.386 498.287 208.11C498.233 207.834 498.263 207.548 498.373 207.289C498.483 207.031 498.668 206.811 498.904 206.658C499.14 206.505 499.417 206.426 499.698 206.431C500.065 206.431 500.417 206.577 500.676 206.837C500.936 207.096 501.081 207.448 501.081 207.815V207.815Z" fill="white" stroke="#263238" stroke-width="0.5" stroke-linecap="round" stroke-linejoin="round"/>
<path d="M517.707 205.482C517.713 205.763 517.634 206.04 517.481 206.276C517.328 206.512 517.108 206.697 516.849 206.807C516.59 206.917 516.305 206.947 516.029 206.894C515.752 206.84 515.499 206.705 515.3 206.506C515.101 206.307 514.966 206.054 514.913 205.778C514.859 205.501 514.889 205.216 514.999 204.957C515.109 204.698 515.294 204.478 515.53 204.325C515.766 204.172 516.043 204.094 516.324 204.099C516.691 204.099 517.043 204.245 517.302 204.504C517.562 204.763 517.707 205.115 517.707 205.482Z" fill="white" stroke="#263238" stroke-width="0.5" stroke-linecap="round" stroke-linejoin="round"/>
<path d="M515.999 214.812C516.059 215.022 516.069 215.243 516.029 215.458C515.989 215.672 515.9 215.875 515.769 216.049C515.637 216.223 515.467 216.365 515.272 216.462C515.076 216.56 514.861 216.61 514.643 216.61C514.425 216.61 514.209 216.56 514.014 216.462C513.818 216.365 513.648 216.223 513.517 216.049C513.385 215.875 513.296 215.672 513.256 215.458C513.216 215.243 513.227 215.022 513.287 214.812C513.227 214.603 513.216 214.382 513.256 214.167C513.296 213.952 513.385 213.75 513.517 213.576C513.648 213.401 513.818 213.26 514.014 213.163C514.209 213.065 514.425 213.015 514.643 213.015C514.861 213.015 515.076 213.065 515.272 213.163C515.467 213.26 515.637 213.401 515.769 213.576C515.9 213.75 515.989 213.952 516.029 214.167C516.069 214.382 516.059 214.603 515.999 214.812V214.812Z" fill="white" stroke="#263238" stroke-width="0.5" stroke-linecap="round" stroke-linejoin="round"/>
<path d="M446.374 200.193C446.369 200.474 446.448 200.751 446.601 200.987C446.754 201.223 446.974 201.408 447.232 201.518C447.491 201.628 447.777 201.658 448.053 201.605C448.329 201.551 448.583 201.416 448.782 201.217C448.981 201.018 449.115 200.765 449.169 200.489C449.223 200.212 449.192 199.927 449.082 199.668C448.972 199.409 448.787 199.189 448.551 199.036C448.315 198.883 448.039 198.804 447.758 198.81C447.391 198.81 447.039 198.956 446.779 199.215C446.52 199.474 446.374 199.826 446.374 200.193V200.193Z" fill="white" stroke="#263238" stroke-width="0.5" stroke-linecap="round" stroke-linejoin="round"/>
<path d="M429.694 197.861C429.688 198.142 429.767 198.418 429.92 198.654C430.073 198.89 430.293 199.075 430.552 199.185C430.81 199.295 431.096 199.326 431.372 199.272C431.648 199.218 431.902 199.084 432.101 198.885C432.3 198.686 432.435 198.432 432.488 198.156C432.542 197.88 432.512 197.594 432.402 197.335C432.292 197.077 432.107 196.857 431.87 196.704C431.634 196.551 431.358 196.472 431.077 196.477C430.71 196.477 430.358 196.623 430.099 196.882C429.839 197.142 429.694 197.494 429.694 197.861V197.861Z" fill="white" stroke="#263238" stroke-width="0.5" stroke-linecap="round" stroke-linejoin="round"/>
<path d="M431.456 207.191C431.451 207.472 431.53 207.748 431.683 207.984C431.836 208.22 432.056 208.405 432.314 208.515C432.573 208.625 432.859 208.656 433.135 208.602C433.411 208.549 433.665 208.414 433.864 208.215C434.063 208.016 434.197 207.762 434.251 207.486C434.305 207.21 434.274 206.924 434.164 206.665C434.054 206.407 433.869 206.187 433.633 206.034C433.397 205.881 433.121 205.802 432.84 205.807C432.473 205.807 432.121 205.953 431.861 206.213C431.602 206.472 431.456 206.824 431.456 207.191Z" fill="white" stroke="#263238" stroke-width="0.5" stroke-linecap="round" stroke-linejoin="round"/>
<path d="M539.325 172.528C535.654 179.147 533.933 186.67 534.361 194.226C535.314 201.978 536.764 209.66 538.701 217.226L537.073 224.902L543.285 173.884L539.325 172.528Z" fill="#263238" stroke="#263238" stroke-linecap="round" stroke-linejoin="round"/>
<path d="M422.424 166.316C423.095 173.343 423.095 180.418 422.424 187.445C421.032 193.091 418.493 198.391 414.966 203.014L413.257 211.72L417.217 168.54L422.424 166.316Z" fill="#263238" stroke="#263238" stroke-linecap="round" stroke-linejoin="round"/>
<path d="M464.791 190.727C464.791 190.727 457.006 219.505 458.2 222.488C459.393 225.472 469.591 227.913 477.972 226.692C486.353 225.472 483.939 190.13 483.939 190.13" stroke="#263238" stroke-linecap="round" stroke-linejoin="round"/>
<path d="M498.938 194.334C498.938 194.334 507.347 188.34 518.711 196.124" stroke="#263238" stroke-linecap="round" stroke-linejoin="round"/>
<path d="M435.443 188.937C437.869 187.207 440.824 186.379 443.796 186.597C446.767 186.815 449.57 188.065 451.717 190.131" stroke="#263238" stroke-linecap="round" stroke-linejoin="round"/>
<path d="M460.613 166.805C460.613 166.805 439.62 164.391 429.449 173.396" stroke="#263238" stroke-width="3" stroke-linecap="round" stroke-linejoin="round"/>
<path d="M494.788 173.368C494.788 173.368 514.561 168.568 525.952 184.218" stroke="#263238" stroke-width="3" stroke-linecap="round" stroke-linejoin="round"/>
<path d="M530.048 235.67C525.871 243.454 515.076 251.944 515.076 251.944C515.076 251.944 515.673 230.245 507.888 229.16C500.104 228.075 471.923 229.757 458.145 224.983C458.145 224.983 430.588 220.779 429.395 226.774C428.201 232.768 425.191 247.143 425.191 247.143C425.191 247.143 422.804 248.336 418.6 237.568C415.9 230.156 413.973 222.485 412.85 214.677C411.493 235.453 411.032 257.341 414.124 266.21C420.769 285.522 446.672 303.613 470.838 302.392C495.005 301.172 517.3 289.129 525.084 280.694C528.963 276.517 533.438 250.316 536.964 224.929C534.375 228.319 532.062 231.91 530.048 235.67V235.67ZM495.9 262.63C491.181 265.342 482.745 266.02 473.686 265.505C470.73 255.47 469.509 256.636 461.752 256.636C456.572 256.636 456.165 260.596 456.328 263.254C450.741 262.267 445.282 260.656 440.054 258.453C428.662 253.029 438.237 238.681 438.237 238.681C455.622 245.271 498.151 242.857 498.151 242.857C498.151 242.857 507.346 256.039 495.954 262.63H495.9Z" fill="#263238" stroke="#263238" stroke-linecap="round" stroke-linejoin="round"/>
<path d="M362.482 431.009C362.482 431.009 365.032 452.274 370.131 453.142C375.23 454.01 380.356 429.301 380.356 429.301C380.356 429.301 366.741 431.009 362.482 431.009Z" stroke="#263238" stroke-linecap="round" stroke-linejoin="round"/>
<path d="M518.412 436.407C518.412 436.407 517.191 457.807 522.074 459.543C526.956 461.278 536.286 437.844 536.286 437.844C536.286 437.844 522.589 437.166 518.412 436.407Z" stroke="#263238" stroke-linecap="round" stroke-linejoin="round"/>
<path d="M370.023 303.396C370.023 303.396 359.174 410.586 359.174 423.361C359.174 436.135 377.889 442.916 383.015 421.652C388.141 400.387 398.312 299.137 398.312 299.137C398.312 299.137 382.038 297.429 370.023 303.396Z" fill="#57E089" stroke="#263238" stroke-linecap="round" stroke-linejoin="round"/>
<path d="M536.042 301.687C536.042 301.687 511.361 431.877 516.487 437.817C521.613 443.757 531.784 452.274 541.142 434.427C550.499 416.58 567.532 311.885 567.532 311.885C567.532 311.885 550.499 302.419 536.042 301.687Z" fill="#57E089" stroke="#263238" stroke-linecap="round" stroke-linejoin="round"/>
<path d="M376.939 445.9C376.939 446.973 376.621 448.021 376.025 448.913C375.429 449.806 374.582 450.501 373.59 450.911C372.599 451.322 371.508 451.429 370.456 451.22C369.404 451.011 368.437 450.494 367.679 449.735C366.92 448.977 366.403 448.01 366.194 446.958C365.985 445.906 366.092 444.815 366.503 443.824C366.913 442.833 367.609 441.985 368.501 441.389C369.393 440.793 370.442 440.475 371.514 440.475C372.953 440.475 374.333 441.047 375.35 442.064C376.368 443.081 376.939 444.461 376.939 445.9Z" fill="white" stroke="#263238" stroke-linecap="round" stroke-linejoin="round"/>
<path d="M529.235 454.308C529.235 455.381 528.917 456.43 528.321 457.322C527.725 458.214 526.877 458.909 525.886 459.32C524.895 459.73 523.804 459.838 522.752 459.628C521.7 459.419 520.733 458.902 519.975 458.144C519.216 457.385 518.699 456.418 518.49 455.366C518.281 454.314 518.388 453.223 518.799 452.232C519.209 451.241 519.904 450.394 520.797 449.798C521.689 449.201 522.737 448.883 523.81 448.883C525.249 448.883 526.629 449.455 527.646 450.472C528.663 451.489 529.235 452.869 529.235 454.308Z" fill="white" stroke="#263238" stroke-linecap="round" stroke-linejoin="round"/>
<path d="M639.028 544.41C639.028 544.41 659.94 551.381 655.763 575.764C651.586 600.148 635.53 600.175 631.353 599.47C626.45 598.34 621.607 596.964 616.842 595.347C616.842 595.347 627.311 582.111 622.429 567.465C617.547 552.818 618.117 543 639.028 544.41Z" fill="white" stroke="#263238" stroke-linecap="round" stroke-linejoin="round"/>
<path d="M535.147 582.057C537.27 590.629 541.874 598.384 548.383 604.352C558.853 613.438 578.354 614.821 578.354 614.821C574.906 623.851 569.42 631.964 562.325 638.527C551.177 648.291 538.619 662.232 535.202 671.291C531.784 680.35 537.914 677.584 542.172 671.997C546.43 666.409 551.936 657.35 551.936 657.35C551.936 657.35 546.349 676.173 551.936 672.702C557.524 669.23 560.996 654.556 560.996 654.556C560.996 654.556 560.995 672.702 565.172 668.525C569.349 664.348 568.671 651.085 568.671 648.996C568.671 646.908 576.32 644.792 580.524 640.615C584.728 636.438 567.261 640.615 567.261 640.615C567.261 640.615 592.377 623.202 596.554 616.91C600.731 610.617 590.261 599.47 587.495 595.998C584.728 592.526 535.147 582.057 535.147 582.057Z" fill="#CFCFCF" stroke="#263238" stroke-linecap="round" stroke-linejoin="round"/>
<path d="M578.354 614.821C574.906 623.851 569.42 631.964 562.325 638.527C551.177 648.291 538.619 662.232 535.202 671.291C531.784 680.35 537.914 677.584 542.172 671.997C546.43 666.409 551.936 657.35 551.936 657.35C551.936 657.35 546.349 676.174 551.936 672.702C557.524 669.23 560.996 654.557 560.996 654.557C560.996 654.557 560.995 672.702 565.172 668.525C569.349 664.348 568.671 651.085 568.671 648.996C568.671 646.908 576.32 644.792 580.524 640.615C584.728 636.438 567.261 640.615 567.261 640.615C567.261 640.615 592.377 623.202 596.554 616.91C598.29 614.198 597.476 610.807 595.74 607.39C585.026 604.65 578.354 614.821 578.354 614.821Z" fill="white" stroke="#263238" stroke-linecap="round" stroke-linejoin="round"/>
<path d="M532.462 556.724C534.601 565.295 539.214 573.049 545.725 579.019C556.167 588.078 575.696 589.489 575.696 589.489C572.236 598.512 566.752 606.622 559.666 613.194C548.519 622.958 535.961 636.9 532.543 645.959C529.126 655.018 535.256 652.251 539.514 646.664C543.772 641.077 549.278 632.017 549.278 632.017C549.278 632.017 543.718 650.841 549.278 647.369C554.838 643.897 558.337 629.224 558.337 629.224C558.337 629.224 558.337 647.369 562.541 643.165C566.745 638.961 566.013 625.752 566.013 623.664C566.013 621.575 573.689 619.46 577.866 615.283C582.043 611.106 564.63 615.283 564.63 615.283C564.63 615.283 589.719 597.842 593.923 591.577C598.127 585.312 587.63 574.137 584.836 570.665C582.043 567.194 532.462 556.724 532.462 556.724Z" fill="white" stroke="#263238" stroke-linecap="round" stroke-linejoin="round"/>
<path d="M575.696 589.488C572.236 598.512 566.752 606.622 559.666 613.194C548.519 622.958 535.961 636.899 532.543 645.958C529.126 655.017 535.256 652.251 539.514 646.664C543.772 641.076 549.278 632.017 549.278 632.017C549.278 632.017 543.718 650.84 549.278 647.369C554.838 643.897 558.337 629.224 558.337 629.224C558.337 629.224 558.337 647.369 562.541 643.165C566.745 638.961 566.013 625.752 566.013 623.663C566.013 621.575 573.689 619.459 577.866 615.282C582.043 611.105 564.63 615.282 564.63 615.282C564.63 615.282 589.719 597.842 593.923 591.577C595.658 588.865 594.845 585.474 593.082 582.057C582.341 579.317 575.696 589.488 575.696 589.488Z" fill="white" stroke="#263238" stroke-linecap="round" stroke-linejoin="round"/>
<path d="M537.29 470.582C537.29 470.582 515.592 454.308 499.318 471.477C483.044 488.646 492.076 526.645 502.925 541.996C513.774 557.348 566.203 575.466 597.855 572.754C629.508 570.041 652.996 535.677 652.996 517.586C652.996 499.495 637.645 486.855 625.873 485.96C614.102 485.065 591.536 481.431 591.536 481.431C591.536 481.431 547.217 478.719 537.29 470.582Z" fill="#CFCFCF" stroke="#263238" stroke-linecap="round" stroke-linejoin="round"/>
<path d="M619.554 440.367C619.554 440.367 623.432 433.125 619.283 420.079C615.133 407.032 606.236 406.517 606.236 409.989V415.413C606.236 415.413 597.367 405.92 594.98 407.711C592.594 409.501 594.384 419.563 594.384 419.563C594.384 419.563 613.18 423.903 619.554 440.367Z" fill="#263238" stroke="#263238" stroke-linecap="round" stroke-linejoin="round"/>
<path d="M619.554 440.367C619.554 440.367 613.614 422.493 598.29 418.234C582.965 413.976 565.959 420.947 559.992 427.619C552.029 437.676 544.649 448.18 537.887 459.081C531.92 468.439 501.298 482.922 507.265 488.022C513.232 493.121 529.37 485.472 529.37 485.472C529.37 485.472 518.304 502.478 531.92 499.929C545.536 497.379 546.403 491.412 546.403 491.412C546.403 491.412 542.986 512.703 552.343 509.286C561.701 505.869 560.86 498.22 560.86 498.22C560.86 498.22 556.602 517.803 565.959 517.803C575.316 517.803 577.025 504.241 577.025 504.241C577.025 504.241 579.575 522.115 590.587 519.538C601.599 516.962 595.686 506.791 595.686 506.791C595.686 506.791 609.247 518.698 611.96 511.89C614.672 505.082 606.86 492.334 606.86 492.334C606.86 492.334 597.503 471.911 605.993 463.394C614.482 454.877 632.383 449.833 632.383 449.833L619.554 440.367Z" fill="#878787" stroke="#263238" stroke-linecap="round" stroke-linejoin="round"/>
<path d="M614.319 454.823C614.889 455.339 615.459 455.8 616.028 456.261C621.244 453.595 626.691 451.407 632.302 449.724L619.554 440.367C619.554 440.367 604.962 446.334 614.319 454.823Z" fill="#57E089" stroke="#263238" stroke-linecap="round" stroke-linejoin="round"/>
<path d="M604.338 436.38C604.343 437.031 604.155 437.669 603.796 438.213C603.438 438.757 602.925 439.182 602.325 439.434C601.724 439.685 601.062 439.753 600.423 439.627C599.784 439.501 599.196 439.188 598.736 438.727C598.275 438.267 597.962 437.679 597.836 437.04C597.71 436.401 597.778 435.739 598.029 435.138C598.281 434.537 598.706 434.025 599.25 433.667C599.794 433.308 600.432 433.12 601.083 433.125C601.947 433.125 602.774 433.468 603.385 434.078C603.995 434.689 604.338 435.516 604.338 436.38V436.38Z" fill="white" stroke="#263238" stroke-linecap="round" stroke-linejoin="round"/>
<path d="M634.146 559.735C634.146 559.735 617.411 566.705 607.646 559.029C597.882 551.354 583.236 539.528 570 539.528C556.764 539.528 555.353 550.676 561.619 554.853C567.884 559.029 582.558 570.204 582.558 570.204C582.558 570.204 563.029 570.882 551.882 561.823C540.734 552.764 532.896 536.734 525.383 537.412C517.87 538.091 526.061 553.469 526.061 553.469C526.061 553.469 514.913 540.911 510.736 545.793C506.559 550.676 518.412 566.705 523.972 575.086C529.532 583.467 560.236 595.347 568.617 598.059C572.423 599.509 576.412 600.422 580.469 600.772C580.469 600.772 609.057 596.703 616.841 595.347C624.625 593.991 632.193 591.875 634.986 580.701C637.78 569.526 636.234 561.823 634.146 559.735Z" fill="white" stroke="#263238" stroke-linecap="round" stroke-linejoin="round"/>
<path d="M526.062 553.469C526.062 553.469 535.826 574.381 551.177 582.735Z" fill="white"/>
<path d="M526.062 553.469C526.062 553.469 535.826 574.381 551.177 582.735" stroke="#263238" stroke-linecap="round" stroke-linejoin="round"/>
<path d="M321.202 510.588L171.348 503.807L177.45 576.361H178.21C182.549 592.825 210.54 606.576 245.068 608.176C260.718 608.909 277.914 607.878 292.831 602.182C308.373 596.269 313.96 581.379 315.994 566.054C316.835 559.897 319.927 510.534 321.202 510.588Z" fill="#878787" stroke="#263238" stroke-linecap="round" stroke-linejoin="round"/>
<path d="M255.076 536.572C251.695 536.572 248.277 536.49 244.824 536.328C226.295 535.765 207.979 532.22 190.578 525.831C169.802 517.504 165.815 507.794 166.167 501.095C166.52 494.396 171.348 485.12 192.829 478.718C210.773 473.973 229.363 472.141 247.889 473.294C266.417 473.857 284.734 477.401 302.134 483.79C322.911 492.117 326.898 501.827 326.545 508.527C326.22 515.199 321.365 524.502 299.883 530.903C285.286 534.876 270.203 536.785 255.076 536.572V536.572ZM237.419 483.926C223.357 483.7 209.332 485.453 195.758 489.134C182.034 493.202 176.989 498.383 176.772 501.61C176.555 504.838 181.166 510.452 194.429 515.768C210.74 521.715 227.903 524.994 245.258 525.478C262.591 526.596 279.99 524.92 296.791 520.515C310.515 516.447 315.56 511.266 315.777 508.038C315.94 504.838 311.383 499.196 298.12 493.88C281.794 487.918 264.612 484.63 247.238 484.143C243.929 484.143 240.647 483.926 237.419 483.926V483.926Z" fill="#878787" stroke="#263238" stroke-linecap="round" stroke-linejoin="round"/>
<path d="M320.46 508.108C321.123 493.833 288.46 480.718 247.505 478.815C206.551 476.912 172.812 486.942 172.149 501.217C171.486 515.492 204.149 528.607 245.104 530.51C286.059 532.413 319.797 522.383 320.46 508.108Z" fill="white" stroke="#263238" stroke-linecap="round" stroke-linejoin="round"/>
<path d="M255.158 507.035C247.021 514.141 235.331 514.06 228.957 506.818C222.583 499.576 223.994 487.832 232.076 480.807C240.159 473.782 261.911 464.967 268.285 472.209C274.659 479.451 263.24 499.902 255.158 507.035Z" fill="white" stroke="#263238" stroke-miterlimit="10"/>
<path d="M239.834 494.179C239.834 505.028 232.022 513.68 222.367 513.68C212.711 513.68 204.899 504.946 204.899 494.179C204.899 483.411 212.738 461.306 222.367 461.306C231.995 461.306 239.834 483.384 239.834 494.179Z" fill="white" stroke="#263238" stroke-miterlimit="10"/>
<path d="M290.96 505.597C290.96 516.447 283.121 525.126 273.493 525.126C263.864 525.126 256.025 516.365 256.025 505.597C256.025 494.83 263.837 472.724 273.493 472.724C283.148 472.724 290.96 494.802 290.96 505.597Z" fill="white" stroke="#263238" stroke-miterlimit="10"/>
<path d="M268.123 519.701C268.123 530.551 260.284 539.23 250.656 539.23C241.027 539.23 233.188 530.469 233.188 519.701C233.188 508.934 241 486.855 250.683 486.855C260.366 486.855 268.123 508.906 268.123 519.701Z" fill="white" stroke="#263238" stroke-miterlimit="10"/>
<path d="M214.365 507.604C214.365 518.454 206.554 527.133 196.898 527.133C187.242 527.133 179.431 518.399 179.431 507.604C179.431 496.81 187.242 474.731 196.898 474.731C206.554 474.731 214.365 496.837 214.365 507.604Z" fill="white" stroke="#263238" stroke-miterlimit="10"/>
<path d="M311.112 507.604C311.112 518.454 303.274 527.133 293.645 527.133C284.016 527.133 276.178 518.399 276.178 507.604C276.178 496.81 283.989 474.731 293.645 474.731C303.301 474.731 311.112 496.837 311.112 507.604Z" fill="white" stroke="#263238" stroke-miterlimit="10"/>
<path d="M232.32 529.873C224.184 537.006 212.494 536.897 206.12 529.656C199.746 522.414 201.129 510.67 209.239 503.645C217.349 496.62 239.074 487.805 245.448 495.047C251.822 502.289 240.403 522.739 232.32 529.873Z" fill="white" stroke="#263238" stroke-miterlimit="10"/>
<path d="M298.934 509.449C306.42 517.206 306.854 528.95 299.911 535.622C292.967 542.295 281.25 541.454 273.792 533.697C266.333 525.94 256.596 504.594 263.566 497.894C270.537 491.195 291.367 501.692 298.934 509.449Z" fill="white" stroke="#263238" stroke-miterlimit="10"/>
<path d="M319.873 511.076C318.515 511.082 317.204 510.578 316.2 509.664C315.195 508.75 314.57 507.492 314.448 506.14L311.437 452.463C310.571 442.592 307.274 433.089 301.841 424.802C296.408 416.515 289.007 409.702 280.3 404.971L274.415 401.771C265.962 397.158 256.527 394.639 246.9 394.426C237.273 394.213 227.735 396.313 219.087 400.548C210.439 404.783 202.933 411.03 197.198 418.765C191.464 426.501 187.668 435.499 186.129 445.005L177.342 499.251C177.033 500.594 176.225 501.769 175.082 502.538C173.938 503.307 172.545 503.612 171.185 503.391C169.825 503.17 168.599 502.44 167.758 501.348C166.917 500.257 166.522 498.886 166.655 497.515L175.443 443.269C177.256 432.05 181.734 421.431 188.5 412.3C195.265 403.17 204.122 395.795 214.327 390.795C224.532 385.795 235.787 383.315 247.148 383.564C258.51 383.812 269.646 386.782 279.622 392.223L285.508 395.451C295.796 401.047 304.538 409.103 310.956 418.899C317.373 428.696 321.266 439.929 322.286 451.595L325.27 505.272C325.398 506.703 324.953 508.127 324.033 509.23C323.112 510.333 321.792 511.027 320.361 511.157L319.873 511.076Z" fill="#878787" stroke="#263238" stroke-linecap="round" stroke-linejoin="round"/>
<path d="M196.436 610.726C196.436 610.726 198.795 611.078 212.357 612.896C225.918 614.713 247.617 607.037 250.681 596.242C252.282 590.817 240.727 590.818 232.59 594.452C224.454 598.086 196.436 610.726 196.436 610.726Z" fill="white" stroke="#263238" stroke-linecap="round" stroke-linejoin="round"/>
<path d="M165.706 541.101C165.706 541.101 181.057 534.782 195.541 542.919C205.365 548.757 214.469 555.73 222.664 563.695C222.664 563.695 227.166 569.119 218.134 574.544C209.102 579.968 207.285 576.361 200.043 570.937C194.918 567.469 189.025 565.3 182.875 564.617C182.875 564.617 200.966 581.786 207.285 587.21C213.605 592.635 231.696 582.681 237.12 589.923C242.545 597.164 239.833 599.877 224.454 604.379C209.075 608.882 194.619 617.046 181.98 608.909C169.34 600.772 139.478 567.329 135.871 556.48C132.263 545.631 153.039 533.86 165.706 541.101Z" fill="white" stroke="#263238" stroke-linecap="round" stroke-linejoin="round"/>
</svg>
