<svg width="4097" height="3943" viewBox="0 0 4097 3943" fill="none" xmlns="http://www.w3.org/2000/svg">
<path d="M2734.67 1974.01L2737.07 2123.74H3969.58V1974.01H2734.67Z" fill="#EBEBEB"/>
<path d="M2788.36 2085.43L2951.57 3622.28C2953.18 3637.5 2960.36 3651.57 2971.74 3661.8C2983.11 3672.03 2997.86 3677.69 3013.16 3677.69H3809.03L3883.08 2085.43H2788.36Z" fill="#EBEBEB"/>
<path d="M3962.57 3668.71C3994.31 3521.32 3900.55 3376.11 3753.15 3344.37C3605.76 3312.64 3460.55 3406.4 3428.82 3553.8C3397.08 3701.19 3490.84 3846.4 3638.24 3878.13C3785.63 3909.86 3930.84 3816.1 3962.57 3668.71Z" fill="#E0E0E0"/>
<path d="M3935.22 2125.11C3935.22 2126.31 3668.16 2127.34 3338.9 2127.34C3009.64 2127.34 2742.48 2126.31 2742.48 2125.11C2742.48 2123.91 3009.47 2122.88 3338.9 2122.88C3668.33 2122.88 3935.22 2123.82 3935.22 2125.11Z" fill="#E0E0E0"/>
<path d="M3969.58 1973.32C3969.58 1974.53 3694.27 1975.56 3354.79 1975.56C3015.31 1975.56 2739.91 1974.53 2739.91 1973.32C2739.91 1972.12 3014.79 1971.09 3354.79 1971.09C3694.79 1971.09 3969.58 1972.12 3969.58 1973.32Z" fill="#E0E0E0"/>
<path d="M3879.81 3648.87C3900.52 3547.2 3834.88 3447.99 3733.21 3427.29C3631.54 3406.59 3532.34 3472.22 3511.64 3573.89C3490.93 3675.56 3556.57 3774.76 3658.24 3795.47C3759.91 3816.17 3859.11 3750.53 3879.81 3648.87Z" fill="#EBEBEB"/>
<path d="M3377.29 2637.51C3377.29 2637.51 3444.04 2657.01 3431.24 2732.69C3418.44 2808.37 3377.29 2819.45 3377.29 2819.45L3470.5 2857.42L3563.7 2838.78L3600.9 2805.45C3600.9 2805.45 3545.06 2773.15 3543.08 2710.36C3541.11 2647.56 3568.08 2641.64 3579.42 2631.5C3590.76 2621.36 3515.6 2605.73 3515.6 2605.73L3449.88 2598.86L3377.29 2637.51Z" fill="#F5F5F5"/>
<path d="M3366.99 2641.29C3380.9 2591.98 3435.71 2564.5 3483.21 2563.98C3530.71 2563.47 3584.66 2590.44 3595.48 2634.42C3582.61 2630.08 3568.56 2630.92 3556.3 2636.76C3544.04 2642.59 3534.52 2652.97 3529.77 2665.69C3527.5 2659.58 3523.62 2654.21 3518.53 2650.13C3513.45 2646.06 3507.36 2643.44 3500.9 2642.56C3494.45 2641.68 3487.88 2642.57 3481.89 2645.13C3475.9 2647.69 3470.71 2651.82 3466.89 2657.1C3453.39 2645.37 3436.84 2637.7 3419.17 2634.96C3401.49 2632.23 3383.4 2634.54 3366.99 2641.64" fill="#E0E0E0"/>
<path d="M3503.66 2517.77C3503.66 2518.45 3499.7 2520.17 3495.06 2525.15C3488.95 2531.73 3484.86 2539.93 3483.3 2548.78C3481.86 2557.81 3481.62 2567 3482.61 2576.09C3483.21 2579.96 3483.21 2583.9 3482.61 2587.78C3480.67 2584.29 3479.49 2580.42 3479.17 2576.44C3477.23 2567.04 3477.06 2557.37 3478.66 2547.92C3480.33 2538.19 3485.31 2529.33 3492.75 2522.83C3498.67 2517.77 3503.57 2517.25 3503.66 2517.77Z" fill="#E0E0E0"/>
<path d="M3463.54 2751.68C3460.56 2737.72 3460.56 2723.29 3463.54 2709.33C3466.52 2723.29 3466.52 2737.72 3463.54 2751.68Z" fill="#E0E0E0"/>
<path d="M3504.77 2747.72C3501.79 2735.1 3501.79 2721.95 3504.77 2709.33C3507.75 2721.95 3507.75 2735.1 3504.77 2747.72Z" fill="#E0E0E0"/>
<path d="M3371.97 2808.8C3371.97 2808.8 3389.15 2891.87 3491.8 2888.52C3594.45 2885.17 3606.57 2803.13 3606.57 2803.13C3606.57 2803.13 3594.63 2826.84 3556.83 2803.13C3556.83 2803.13 3516.8 2852.35 3472.56 2799.78C3472.56 2799.78 3426.26 2841.01 3371.97 2808.8Z" fill="#E0E0E0"/>
<path d="M2477.56 1689.85C2490.12 1666.72 2506.84 1646.1 2526.87 1629.03L2369.33 1538.49C2360.73 1534.33 2353.16 1528.31 2347.17 1520.88C2344.3 1517.08 2342.75 1512.45 2342.75 1507.7C2342.75 1502.94 2344.3 1498.31 2347.17 1494.51C2350.68 1491.68 2354.77 1489.66 2359.15 1488.59C2363.53 1487.52 2368.09 1487.43 2372.51 1488.33C2403.23 1490.44 2433.49 1496.94 2462.36 1507.65C2449.82 1488.07 2437.28 1468.4 2424.65 1448.81C2419.41 1440.65 2414.08 1430 2419.41 1421.84C2424.74 1413.68 2436.59 1414.19 2446.38 1416.94C2466.43 1423.01 2484.61 1434.07 2499.2 1449.1C2513.79 1464.13 2524.32 1482.62 2529.79 1502.84C2528.1 1459.17 2532.7 1415.49 2543.45 1373.13C2546.46 1361.11 2551.1 1347.88 2562.43 1342.81C2568.33 1340.78 2574.72 1340.71 2580.66 1342.6C2586.6 1344.48 2591.78 1348.23 2595.42 1353.29C2602.45 1363.52 2606.87 1375.32 2608.31 1387.65C2621.32 1462.25 2614.44 1538.95 2588.38 1610.05C2619.82 1612.28 2650.91 1629.38 2677.8 1647.59C2777.71 1715.19 2862.85 1802.4 2928.03 1903.92C2928.03 1903.92 3058.6 2124.25 2894.19 2248.12C2841.61 2287.72 2784.58 2282.48 2718.77 2283C2652.97 2283.51 2583.31 2297.95 2519.83 2280.59C2469.15 2266.68 2415.29 2250.53 2381.61 2210.15C2337.8 2157.75 2341.24 2081.3 2354.04 2014.04C2375.9 1899.57 2417.71 1789.84 2477.56 1689.85Z" fill="#E0E0E0"/>
<path d="M1267.3 2094.27L1265.07 2233.52H119.403V2094.27H1267.3Z" fill="#EBEBEB"/>
<path d="M1217.39 2197.87L1065.52 3626.49C1064.01 3640.64 1057.33 3653.73 1046.75 3663.25C1036.17 3672.76 1022.45 3678.03 1008.22 3678.04H268.355L199.634 2197.96L1217.39 2197.87Z" fill="#EBEBEB"/>
<path d="M374.1 3869.77C514.244 3869.77 627.852 3756.16 627.852 3616.01C627.852 3475.87 514.244 3362.26 374.1 3362.26C233.956 3362.26 120.348 3475.87 120.348 3616.01C120.348 3756.16 233.956 3869.77 374.1 3869.77Z" fill="#E0E0E0"/>
<path d="M151.358 2234.72C151.358 2233.52 399.527 2232.49 705.679 2232.49C1011.83 2232.49 1260 2233.52 1260 2234.72C1260 2235.92 1011.83 2236.96 705.679 2236.96C399.527 2236.96 151.358 2236.01 151.358 2234.72Z" fill="#E0E0E0"/>
<path d="M414.738 3785.9C508.514 3763.35 566.256 3669.05 543.708 3575.27C521.159 3481.5 426.859 3423.75 333.082 3446.3C239.306 3468.85 181.564 3563.15 204.112 3656.93C226.661 3750.7 320.961 3808.45 414.738 3785.9Z" fill="#EBEBEB"/>
<path d="M408.546 2022.63L496.423 1905.46H926.016L1041.21 2022.63H408.546Z" fill="#EBEBEB"/>
<path d="M551.83 2973.04V2613.12L601.738 2550.24V2513.39H749.145V2554.62L797.937 2603.41V2973.04H551.83Z" fill="#E0E0E0"/>
<path d="M694.168 2689.91H571.158V2866.27H694.168V2689.91Z" fill="white"/>
<path d="M720.368 2973.04C720.129 2971.62 720.129 2970.17 720.368 2968.75C720.368 2965.4 720.368 2961.27 720.368 2956.38C720.368 2944.95 720.368 2929.49 719.681 2910.76C719.251 2872.37 718.994 2819.19 718.994 2760.52C718.994 2704 718.994 2652.72 719.595 2614.49V2614.06L741.328 2570.68C743.733 2565.96 745.795 2562.09 747.427 2559C748.04 2557.58 748.85 2556.25 749.832 2555.05C749.51 2556.54 748.99 2557.99 748.286 2559.34L742.359 2571.03C737.205 2582.02 730.333 2596.8 721.914 2615.01V2614.32C721.914 2652.72 721.914 2704 722.516 2760.35C722.516 2819.02 722.516 2872.02 721.828 2910.59C721.828 2929.32 721.313 2944.95 721.141 2956.21C721.141 2961.1 721.141 2965.23 720.712 2968.58C720.857 2970.07 720.741 2971.59 720.368 2973.04Z" fill="#F5F5F5"/>
<path d="M718.307 2614.32C690.16 2616.53 661.918 2617.28 633.694 2616.55C605.441 2617.28 577.17 2616.53 548.995 2614.32C577.167 2612.05 605.441 2611.31 633.694 2612.09C661.918 2611.31 690.163 2612.06 718.307 2614.32Z" fill="#F5F5F5"/>
<path d="M749.145 2548.78C723.929 2551.04 698.6 2551.79 673.294 2551.01C647.96 2551.78 622.602 2551.04 597.357 2548.78C622.605 2546.57 647.96 2545.82 673.294 2546.54C698.6 2545.82 723.926 2546.56 749.145 2548.78Z" fill="#F5F5F5"/>
<path d="M76.2803 2114.55L130.742 1987.84L1251.84 1993.94L1311.54 2114.55H76.2803Z" fill="#EBEBEB"/>
<path d="M108.751 2114.55C108.751 2113.34 378.051 2112.31 710.06 2112.31C1042.07 2112.31 1311.37 2113.34 1311.37 2114.55C1311.37 2115.75 1042.15 2116.78 710.06 2116.78C377.966 2116.78 108.751 2115.83 108.751 2114.55Z" fill="#E0E0E0"/>
<path d="M1251.84 1993.77C1251.84 1995.06 1000.92 1994.63 691.505 1993C382.089 1991.36 131.171 1988.87 131.171 1987.67C131.171 1986.47 382.003 1986.81 691.591 1988.53C1001.18 1990.25 1251.84 1992.74 1251.84 1993.77Z" fill="#E0E0E0"/>
<path d="M3331.51 913.99H2913.6V1024.54H3331.51V913.99Z" fill="#EBEBEB"/>
<path d="M3154.81 1141.03C3154.81 1141.03 3154.81 1140.25 3154.81 1138.97V1133.3C3154.81 1128.14 3154.81 1120.84 3154.81 1111.56C3154.81 1092.49 3154.81 1065 3154.04 1030.47L3155.33 1031.76L2737.5 1032.53L2739.56 1030.47V1086.48C2739.56 1104.92 2739.56 1123.04 2739.56 1140.85L2737.5 1138.79L3035.32 1139.74L3123.28 1140.25H3146.99H3153.26H3155.41H3153.52H3147.59H3124.23L3036.78 1140.85L2737.5 1141.8H2735.27V1086.65C2735.27 1077.37 2735.27 1068.1 2735.27 1058.73V1030.64C2739.56 1026.35 2736.47 1029.44 2737.5 1028.5L3155.33 1029.35H3156.18V1030.64C3156.18 1065.52 3155.58 1093.27 3155.41 1112.51C3155.41 1121.7 3155.41 1128.83 3155.41 1133.98C3155.41 1136.22 3155.41 1138.02 3155.41 1139.39C3155.28 1139.96 3155.08 1140.51 3154.81 1141.03Z" fill="#E0E0E0"/>
<path d="M905.657 0H487.748V110.555H905.657V0Z" fill="#EBEBEB"/>
<path d="M728.958 227.037C728.897 226.351 728.897 225.661 728.958 224.975V219.306C728.958 214.152 728.958 206.85 728.958 197.573C728.958 178.503 728.529 151.014 728.271 116.482L729.56 117.771L311.65 118.63C312.595 117.599 309.502 120.691 313.712 116.482V227.037L311.65 224.975L609.47 225.92L697.347 226.522H721.141H727.326H729.56H727.584H721.657H698.292L610.93 227.123L311.65 228.068H309.502V116.654L311.65 114.506L729.56 115.365H730.848V116.654C730.848 151.53 730.333 179.276 730.161 198.518C730.161 207.709 730.161 214.839 730.161 219.993C730.161 222.227 730.161 224.03 730.161 225.405C729.799 225.977 729.397 226.522 728.958 227.037Z" fill="#E0E0E0"/>
<path d="M3706.64 227.209C3706.6 226.551 3706.6 225.891 3706.64 225.233V219.564C3706.64 214.324 3706.64 207.108 3706.64 197.831C3706.64 178.761 3706.64 151.272 3705.95 116.654L3707.24 117.942L3289.33 118.801L3291.48 116.654V172.662C3291.48 191.159 3291.48 209.284 3291.48 227.037L3289.42 224.975L3587.24 225.92L3675.11 226.522H3698.91H3705.18H3707.33C3707.33 226.522 3706.73 226.522 3705.44 226.522H3699.42H3676.14L3588.7 227.123L3289.42 228.068H3287.36V225.92C3287.36 208.139 3287.36 190.014 3287.36 171.545V116.74C3291.65 112.531 3288.56 115.623 3289.5 114.678L3707.41 115.451H3708.7V116.74C3708.7 151.702 3708.19 179.362 3708.01 198.69C3708.01 207.881 3708.01 215.011 3708.01 220.165V225.577C3706.73 226.693 3706.73 227.295 3706.64 227.209Z" fill="#E0E0E0"/>
<path d="M3763.34 116.654C3763.27 115.968 3763.27 115.278 3763.34 114.592C3763.34 112.96 3763.34 111.07 3763.34 108.751C3763.34 103.253 3763.34 95.8658 3763.34 86.5885C3763.34 67.1748 3762.82 39.7723 3762.48 6.09898L3764.02 7.64521L3512.93 8.24651C3511.04 10.1363 3515.51 5.66948 3514.99 6.09898V62.9656C3514.99 81.5203 3514.99 99.3878 3514.99 116.568L3513.02 114.592L3692.64 115.537L3744.95 116.053H3759.04H3764.11C3762.59 116.175 3761.07 116.175 3759.56 116.053H3745.81L3694.27 116.654L3513.28 117.599H3511.21V115.537C3511.21 98.3569 3511.21 80.4895 3511.21 61.9348V6.18489L3513.36 4.03735L3764.45 4.63866H3766V6.18489C3766 40.5454 3765.31 67.9479 3765.14 87.5334C3765.14 96.7248 3765.14 104.026 3765.14 109.352C3765.14 114.678 3763.42 116.826 3763.34 116.654Z" fill="#E0E0E0"/>
<path d="M2119.1 2921.5C2119.02 2920.85 2119.02 2920.18 2119.1 2919.53V2913.86C2119.1 2908.62 2119.1 2901.4 2119.1 2892.04C2119.1 2872.97 2118.67 2845.57 2118.41 2810.95L2119.7 2812.24L1701.79 2813.1C1702.73 2812.15 1699.64 2815.16 1703.85 2810.95V2921.5L1701.7 2919.44L1999.61 2920.39L2087.49 2920.99H2111.28H2116.78H2119.01H2117.04H2111.11H2087.74L2000.3 2921.59L1701.02 2922.53H1698.96V2811.46L1701.1 2809.32L2119.01 2810.17H2120.3V2811.46C2120.3 2846.42 2119.7 2874.08 2119.53 2893.33C2119.53 2902.52 2119.53 2909.65 2119.53 2914.8V2920.3C2119.41 2920.71 2119.27 2921.11 2119.1 2921.5Z" fill="#E0E0E0"/>
<path d="M2175.71 2811.29C2175.71 2811.29 2175.71 2810.52 2175.71 2809.14V2803.3C2175.71 2797.89 2175.71 2790.5 2175.28 2781.14C2175.28 2761.73 2175.28 2734.41 2174.42 2700.74L2175.96 2702.28L1924.88 2702.88L1927.02 2700.74V2757.52C1927.02 2775.99 1927.02 2793.94 1927.02 2811.12L1924.96 2809.06L2104.58 2810.09L2156.89 2810.6H2171.07H2176.05C2174.54 2810.73 2173.01 2810.73 2171.5 2810.6H2157.84L2106.3 2811.12L1925.3 2812.15H1923.33V2756.49C1923.33 2747.21 1923.33 2737.85 1923.33 2728.31V2699.71L1925.48 2697.56L2176.57 2698.16H2176.91V2699.71C2176.91 2734.07 2176.31 2761.47 2176.14 2781.05C2176.14 2790.25 2176.14 2797.55 2175.71 2802.87C2175.99 2805.67 2175.99 2808.49 2175.71 2811.29Z" fill="#E0E0E0"/>
<path d="M618.489 1153.22C618.428 1152.54 618.428 1151.85 618.489 1151.16C618.489 1149.7 618.489 1147.81 618.489 1145.49C618.489 1140.34 618.489 1133.04 618.489 1123.76C618.489 1104.69 618.06 1077.2 617.802 1042.67L619.091 1043.96L201.181 1044.73L203.243 1042.67V1153.05L201.181 1150.91L498.399 1151.94L586.276 1152.54H610.071H616.256H618.489H616.514H610.586H587.221L499.86 1153.14L200.58 1154.08H198.432V1042.84L200.58 1040.69L618.489 1041.55H619.778V1042.84C619.778 1077.72 619.263 1105.46 619.091 1124.71C619.091 1133.9 619.091 1141.03 619.091 1146.18C619.091 1148.41 619.091 1150.22 619.091 1151.59C618.924 1152.15 618.723 1152.69 618.489 1153.22Z" fill="#E0E0E0"/>
<path d="M2552.04 370.234C2552.01 369.576 2552.01 368.917 2552.04 368.259V362.589C2552.04 357.349 2552.04 350.133 2552.04 340.77C2552.04 321.7 2551.61 294.298 2551.27 259.679L2552.56 260.968L2133.96 261.999L2136.11 259.851V315.859C2136.11 334.356 2136.11 352.481 2136.11 370.234L2134.05 368.173L2431.87 369.118L2519.83 369.719H2543.54H2549.81H2551.96C2551.96 369.719 2551.35 369.719 2550.07 369.719H2544.14H2520.77L2433.33 370.32L2133.96 372.468H2131.9V316.031C2131.9 306.839 2131.9 297.476 2131.9 288.113V260.023L2134.05 257.875L2551.96 258.735H2553.33V260.023C2553.33 294.985 2552.73 322.645 2552.56 341.887C2552.56 351.078 2552.56 358.294 2552.56 363.362V368.86C2552.13 370.234 2552.13 370.234 2552.04 370.234Z" fill="#E0E0E0"/>
<path d="M4096.12 3885.14C4096.12 3886.35 3179.03 3887.38 2048.14 3887.38C917.254 3887.38 0 3886.35 0 3885.14C0 3883.94 916.824 3882.91 2048.14 3882.91C3179.46 3882.91 4096.12 3883.6 4096.12 3885.14Z" fill="#263238"/>
<path d="M3202.74 1886.13C3190.58 1863.8 3174.42 1843.88 3155.07 1827.38L3307.03 1739.84C3315.35 1735.78 3322.66 1729.91 3328.42 1722.66C3331.29 1718.98 3332.85 1714.45 3332.85 1709.78C3332.85 1705.11 3331.29 1700.58 3328.42 1696.89C3325.02 1694.17 3321.07 1692.23 3316.84 1691.19C3312.61 1690.15 3308.21 1690.05 3303.94 1690.88C3274.24 1693.19 3245.03 1699.73 3217.18 1710.29L3253.6 1653.43C3258.67 1645.52 3263.82 1635.22 3258.75 1627.66C3253.68 1620.1 3241.57 1620.27 3232.98 1622.93C3213.64 1628.78 3196.09 1639.43 3181.99 1653.9C3167.88 1668.36 3157.67 1686.17 3152.32 1705.66C3153.93 1663.44 3149.5 1621.21 3139.18 1580.24C3136.26 1568.64 3131.7 1555.84 3120.79 1550.95C3115.1 1549 3108.92 1548.93 3103.19 1550.76C3097.45 1552.58 3092.45 1556.2 3088.92 1561.08C3082.02 1570.99 3077.73 1582.49 3076.47 1594.5C3063.87 1666.53 3070.51 1740.61 3095.71 1809.25C3065.3 1811.4 3035.58 1827.98 3009.21 1845.59C2912.62 1910.93 2830.34 1995.25 2767.4 2093.41C2767.4 2093.41 2641.12 2306.45 2800.04 2426.2C2850.89 2464.42 2911.02 2490.02 2974.59 2490.28C3038.16 2490.54 3100.61 2474.3 3161.94 2457.55C3210.99 2444.15 3262.96 2428.43 3295.6 2389.43C3337.95 2338.83 3334.6 2264.7 3322.23 2199.85C3301.08 2089.09 3260.63 1982.9 3202.74 1886.13Z" fill="#263238"/>
<path d="M2205.43 1981.06L2207.75 2130.78H3440.35V1981.06H2205.43Z" fill="#57E089"/>
<path d="M2246.49 2090.32L2409.7 3627.18C2411.32 3642.39 2418.5 3656.47 2429.87 3666.7C2441.24 3676.93 2456 3682.59 2471.29 3682.59H3267.86L3341.99 2090.32H2246.49Z" fill="#57E089"/>
<path d="M3433.07 3676.21C3465.19 3528.9 3371.81 3383.45 3224.5 3351.33C3077.19 3319.21 2931.73 3412.59 2899.61 3559.9C2867.49 3707.21 2960.87 3852.67 3108.18 3884.79C3255.49 3916.9 3400.95 3823.52 3433.07 3676.21Z" fill="#263238"/>
<path d="M3672.71 838.568L3294.92 2028.64L3424.37 1989.3L3756.46 984.343L3672.71 838.568Z" fill="#57E089"/>
<path d="M3666.09 1257.85L3725.97 1324.51L3587.24 1714.33L3507.44 1737.95L3666.09 1257.85Z" fill="#57E089"/>
<path d="M3166.41 3777.42C3250.43 3777.42 3318.54 3709.31 3318.54 3625.29C3318.54 3541.27 3250.43 3473.16 3166.41 3473.16C3082.39 3473.16 3014.28 3541.27 3014.28 3625.29C3014.28 3709.31 3082.39 3777.42 3166.41 3777.42Z" fill="#455A64"/>
<path d="M3397.31 2131.21C3397.31 2132.5 3131.02 2133.44 2802.53 2133.44C2474.04 2133.44 2207.75 2132.5 2207.75 2131.21C2207.75 2129.92 2474.04 2128.98 2802.53 2128.98C3131.02 2128.98 3397.31 2129.58 3397.31 2131.21Z" fill="#263238"/>
<path d="M3431.67 1981.06C3431.67 1982.26 3156.79 1983.29 2818.59 1983.29C2480.4 1983.29 2205.43 1982.26 2205.43 1981.06C2205.43 1979.85 2479.88 1978.82 2818.59 1978.82C3157.3 1978.82 3431.67 1979.77 3431.67 1981.06Z" fill="#263238"/>
<path d="M3446.88 1922.04C3445.67 1921.61 3513.36 1713.56 3598.15 1457.23C3682.93 1200.9 3752.77 993.363 3753.63 993.878C3754.49 994.393 3687.06 1202.27 3602.36 1458.69C3517.66 1715.11 3448.25 1922.38 3446.88 1922.04Z" fill="#263238"/>
<g opacity="0.3">
<path opacity="0.3" d="M3343.54 2131.21C3188.31 2141.52 3028.28 2167.72 2873.05 2177.94C2669.47 2191.43 2458.49 2203.71 2267.88 2131.21H3343.54Z" fill="black"/>
</g>
<path d="M1924.96 3464.06C1935.26 3467.09 1944.84 3472.19 1953.11 3479.04C1961.38 3485.89 1968.17 3494.36 1973.07 3503.91C1982.82 3523.06 1988.05 3544.19 1988.36 3565.68C1990.16 3607.08 1973.5 3651.58 1954 3688.17C1915.08 3663.6 1898.93 3612.75 1892.4 3586.46C1882.1 3544.8 1888.71 3463.37 1925.22 3464.06" fill="#455A64"/>
<path d="M2004.08 3748.99C1999.91 3737.73 1998.79 3725.57 2000.85 3713.74C2002.9 3701.91 2008.04 3690.84 2015.76 3681.64C2023.62 3672.6 2033.21 3665.21 2043.97 3659.92C2054.72 3654.63 2066.42 3651.53 2078.38 3650.8C2083.85 3649.88 2089.46 3650.17 2094.8 3651.65C2100.15 3653.14 2105.1 3655.78 2109.31 3659.39C2112.66 3663.35 2114.89 3668.12 2115.77 3673.23C2116.64 3678.34 2116.13 3683.59 2114.29 3688.43C2110.52 3698.12 2104.23 3706.63 2096.08 3713.08C2069.36 3736.36 2039.21 3753.97 2004.08 3749.16" fill="#455A64"/>
<path d="M1979.77 3880.59C1979.45 3877.74 1979.45 3874.85 1979.77 3872C1979.77 3865.99 1979.77 3858.17 1980.37 3848.81C1980.19 3823.07 1984.23 3797.48 1992.31 3773.04C2000.76 3748.53 2015.58 3726.71 2035.26 3709.82C2041.29 3704.85 2047.9 3700.61 2054.93 3697.19C2056.83 3696.25 2058.78 3695.42 2060.77 3694.7C2062.06 3694.18 2062.83 3693.93 2062.83 3694.1C2053.67 3698.91 2045.03 3704.67 2037.06 3711.28C2018.09 3728.29 2003.76 3749.83 1995.4 3773.9C1987.47 3798.07 1983.19 3823.29 1982.69 3848.72C1982.09 3858.51 1981.66 3866.42 1981.14 3871.91C1980.96 3874.84 1980.5 3877.75 1979.77 3880.59Z" fill="#263238"/>
<path d="M1925.48 3526.51C1925.91 3527.67 1926.23 3528.88 1926.42 3530.11C1927.02 3532.78 1927.8 3536.21 1928.66 3540.51C1930.63 3549.53 1933.21 3562.58 1936.3 3578.82C1942.49 3611.2 1950.39 3656.13 1957.95 3705.95C1965.51 3755.78 1971.43 3800.96 1975.13 3833.69C1977.02 3850.1 1978.48 3863.41 1979.34 3872.52C1979.34 3876.9 1980.02 3880.42 1980.28 3883.17C1980.41 3884.4 1980.41 3885.63 1980.28 3886.86C1979.93 3885.65 1979.7 3884.42 1979.59 3883.17C1979.17 3880.5 1978.65 3876.98 1978.05 3872.69C1976.85 3863.15 1975.04 3850.01 1972.98 3833.95C1968.6 3801.3 1962.41 3756.12 1954.86 3706.38C1947.3 3656.65 1939.65 3611.89 1934.07 3579.16C1931.32 3563.27 1929 3550.21 1927.37 3540.68C1926.68 3536.38 1926.08 3532.95 1925.65 3530.2C1925.4 3528.98 1925.34 3527.74 1925.48 3526.51Z" fill="#263238"/>
<path d="M1948.76 3783.09C1940.75 3759.09 1927.14 3737.34 1909.05 3719.65C1890.96 3701.96 1868.91 3688.84 1844.73 3681.39C1832.45 3677.69 1816.98 3676.4 1808.91 3686.45C1800.83 3696.5 1805.3 3711.36 1811.74 3722.53C1825.68 3745.49 1846.08 3763.81 1870.4 3775.2C1894.72 3786.58 1921.86 3790.53 1948.41 3786.53" fill="#455A64"/>
<path d="M1856.33 3719.01C1858.98 3719.49 1861.6 3720.18 1864.14 3721.07C1867.06 3721.94 1869.93 3722.97 1872.73 3724.16C1876.17 3725.62 1880.12 3726.91 1884.24 3729.06C1888.83 3731.21 1893.3 3733.59 1897.65 3736.19C1902.37 3738.85 1907.18 3742.2 1912.16 3745.73C1922.85 3753.69 1932.59 3762.86 1941.2 3773.04C1949.65 3783.36 1956.91 3794.6 1962.84 3806.54C1965.34 3811.77 1967.55 3817.14 1969.46 3822.61C1971.18 3827.36 1972.64 3832.21 1973.84 3837.12C1974.92 3841.16 1975.75 3845.27 1976.33 3849.41C1976.97 3852.49 1977.37 3855.62 1977.53 3858.77C1977.84 3861.43 1977.84 3864.11 1977.53 3866.76C1976.85 3866.76 1976.24 3855.34 1971.43 3837.73C1970.15 3832.89 1968.6 3828.13 1966.8 3823.47C1964.82 3818.11 1962.55 3812.86 1960.01 3807.75C1954.08 3796.05 1946.88 3785.05 1938.53 3774.93C1930.07 3764.96 1920.57 3755.92 1910.19 3747.96C1905.29 3744.44 1900.65 3741 1896.01 3738.34C1891.37 3735.67 1886.99 3733.1 1882.96 3730.95C1867.67 3722.79 1856.15 3719.7 1856.33 3719.01Z" fill="#263238"/>
<path d="M1341.61 3534.92L1329.49 3758.27C1329.49 3758.27 1552.24 3845.54 1554.04 3887.12L1120.32 3878.79L1125.05 3530.28L1341.61 3534.92Z" fill="#455A64"/>
<path d="M1195.75 3736.79C1191.55 3738 1187.95 3740.7 1185.62 3744.39C1183.29 3748.08 1182.4 3752.5 1183.12 3756.81C1184.2 3761.02 1186.84 3764.67 1190.51 3767.01C1194.18 3769.36 1198.6 3770.22 1202.88 3769.43C1207.31 3768.15 1211.11 3765.27 1213.55 3761.36C1215.99 3757.44 1216.9 3752.76 1216.1 3748.22C1214.54 3743.92 1211.39 3740.39 1207.29 3738.36C1203.2 3736.33 1198.48 3735.95 1194.11 3737.31" fill="#E0E0E0"/>
<g opacity="0.6">
<path opacity="0.6" d="M1120.32 3878.79L1122.21 3843.74L1537.2 3864.53C1537.2 3864.53 1556.36 3873.12 1554.38 3886.86L1120.32 3878.79Z" fill="white"/>
</g>
<path d="M1336.54 3756.03C1336.54 3758.1 1325.8 3758.87 1315.32 3765.48C1304.84 3772.1 1299 3780.94 1297.11 3780C1295.22 3779.06 1298.57 3767.03 1311.46 3759.21C1324.34 3751.39 1337.05 3754.06 1336.54 3756.03Z" fill="#263238"/>
<path d="M1381.64 3775.62C1382.15 3777.68 1373.05 3781.12 1365.49 3789.96C1357.93 3798.81 1355.95 3808.26 1353.8 3808.09C1351.66 3807.92 1350.54 3795.98 1359.9 3785.15C1369.27 3774.33 1381.64 3773.64 1381.64 3775.62Z" fill="#263238"/>
<path d="M1406.46 3830.6C1404.57 3830.6 1401.82 3820.37 1407.49 3808.86C1413.16 3797.35 1423.13 3792.89 1423.99 3794.69C1424.84 3796.49 1418.57 3802.59 1414.11 3811.87C1409.64 3821.15 1408.61 3830.42 1406.46 3830.6Z" fill="#263238"/>
<path d="M1333.7 3704.84C1332.76 3706.73 1323.05 3703.63 1311.11 3704.23C1299.17 3704.84 1289.72 3708.44 1288.69 3706.55C1287.66 3704.66 1296.68 3697.36 1310.85 3696.85C1325.03 3696.33 1335.08 3703.2 1333.7 3704.84Z" fill="#263238"/>
<path d="M1196.18 3537.84L1187.59 3761.19C1187.59 3761.19 1411.79 3844.86 1414.19 3886.26L980.563 3885.31L979.532 3536.81L1196.18 3537.84Z" fill="#455A64"/>
<path d="M1053.67 3742.12C1049.42 3743.27 1045.79 3746.01 1043.5 3749.76C1041.22 3753.52 1040.46 3758.01 1041.38 3762.3C1042.52 3766.49 1045.19 3770.09 1048.87 3772.39C1052.55 3774.68 1056.97 3775.5 1061.22 3774.67C1065.66 3773.33 1069.44 3770.4 1071.84 3766.43C1074.23 3762.46 1075.07 3757.75 1074.2 3753.2C1072.59 3748.91 1069.38 3745.42 1065.24 3743.45C1061.11 3741.48 1056.38 3741.18 1052.03 3742.63" fill="#E0E0E0"/>
<g opacity="0.6">
<path opacity="0.6" d="M980.649 3885.31L981.937 3850.18L1397.18 3864.27C1397.18 3864.27 1416.51 3872.86 1414.36 3886.26L980.649 3885.31Z" fill="white"/>
</g>
<path d="M1194.71 3758.95C1194.71 3761.1 1184.06 3762.05 1173.67 3768.83C1163.28 3775.62 1157.61 3784.47 1155.72 3783.69C1153.83 3782.92 1156.92 3770.55 1169.72 3762.56C1182.52 3754.57 1195.23 3757.06 1194.71 3758.95Z" fill="#263238"/>
<path d="M1240.59 3777.94C1241.1 3779.91 1232 3783.52 1224.69 3792.46C1217.39 3801.39 1215.42 3810.84 1213.27 3810.75C1211.12 3810.67 1209.83 3798.73 1219.03 3787.73C1228.22 3776.74 1240.59 3775.88 1240.59 3777.94Z" fill="#263238"/>
<path d="M1265.84 3832.06C1263.95 3832.06 1261.03 3821.92 1266.53 3810.32C1272.03 3798.73 1281.9 3794.17 1282.76 3795.89C1283.62 3797.61 1277.52 3803.88 1273.14 3813.07C1268.76 3822.26 1267.99 3832.06 1265.84 3832.06Z" fill="#263238"/>
<path d="M1191.02 3707.84C1190.16 3709.82 1180.46 3706.9 1168.43 3707.84C1156.4 3708.79 1147.13 3712.4 1146.01 3710.51C1144.89 3708.62 1153.91 3701.23 1168 3700.45C1182.09 3699.68 1192.05 3706.21 1191.02 3707.84Z" fill="#263238"/>
<path d="M805.84 1942.66L820.529 2118.58L924.899 2800.12C924.899 2800.12 923.181 3135.14 920.776 3324.12C918.714 3488.45 968.021 3770.12 968.021 3770.12L1242.91 3747.27L1262.58 2792.65L1274.43 2197.1L1358.27 1919.46L805.84 1942.66Z" fill="#263238"/>
<path d="M1558.42 2830.79L1531.88 1980.37C1531.51 1968.7 1526.66 1957.61 1518.35 1949.41C1510.03 1941.21 1498.89 1936.52 1487.21 1936.3L1192.31 1930.72C1186.24 1930.63 1180.22 1931.75 1174.6 1934.01C1168.97 1936.28 1163.85 1939.65 1159.55 1943.93C1155.24 1948.2 1151.84 1953.29 1149.53 1958.9C1147.21 1964.51 1146.05 1970.52 1146.1 1976.59L1164.13 3595.74C1164.25 3606.51 1168.2 3616.89 1175.26 3625.03C1182.33 3633.16 1192.05 3638.52 1202.7 3640.15L1367.03 3654.24L1546.91 2921.5C1555.57 2892.07 1559.46 2861.45 1558.42 2830.79Z" fill="#263238"/>
<path d="M1274.26 2204.06C1274.54 2205.35 1274.68 2206.68 1274.69 2208.01C1274.69 2210.84 1275.12 2214.79 1275.46 2219.69C1275.98 2230.25 1276.75 2245.46 1277.78 2264.62C1279.93 2303.7 1281.82 2360.22 1283.71 2430.06C1286.97 2569.74 1287.49 2762.93 1280.96 2976.05C1274.43 3189.17 1264.38 3382.11 1256.74 3521.69C1252.7 3591.19 1249.43 3647.54 1247.2 3686.88C1246 3706.12 1245.05 3721.24 1244.37 3731.81C1244.37 3736.71 1243.68 3740.4 1243.51 3743.41C1243.44 3744.76 1243.27 3746.11 1242.99 3747.44C1242.88 3746.1 1242.88 3744.75 1242.99 3743.41C1242.99 3740.57 1242.99 3736.62 1242.99 3731.72C1243.42 3721.16 1244.02 3705.95 1244.88 3686.8C1246.77 3647.45 1249.43 3591.02 1252.78 3521.44C1259.48 3381.93 1269.28 3189.08 1275.46 2975.96C1281.65 2762.84 1282.08 2569.82 1279.67 2430.15C1278.3 2360.31 1277.01 2303.79 1275.46 2264.7C1274.86 2245.37 1274.43 2230.34 1274.09 2219.77C1274.09 2214.79 1274.09 2211.18 1274.09 2208.01C1274.05 2206.69 1274.11 2205.37 1274.26 2204.06Z" fill="#455A64"/>
<path d="M1185.27 525.63L1140.85 936.41C1132.26 1006.33 1118.86 1110.02 1230.19 1119.21C1327.43 1119.89 1363.43 1032.02 1371.76 966.733C1375.71 935.723 1379.06 909.866 1379.66 906.602C1379.66 906.602 1485.66 910.21 1506.62 807.558C1516.67 757.907 1529.21 653.966 1539.35 559.733C1544.64 510.954 1531.35 461.975 1502.14 422.557C1472.92 383.138 1429.93 356.175 1381.72 347.041L1371.84 345.151C1263.52 331.064 1196.43 416.965 1185.27 525.63Z" fill="#FFCCB3"/>
<path d="M1379.92 906.774C1332.38 897.567 1288.47 874.943 1253.39 841.575C1253.39 841.575 1271.77 923.009 1376.31 933.317L1379.92 906.774Z" fill="#FF9A6A"/>
<path d="M1362.57 588.853C1360.25 588.853 1350.8 580.263 1334.48 573.82C1318.16 567.378 1304.24 567.292 1302.95 565.23C1301.66 563.169 1305.1 563.169 1311.54 563.169C1320.38 563.382 1329.11 565.186 1337.31 568.495C1345.34 571.501 1352.72 576.021 1359.04 581.809C1362.91 586.104 1363.68 588.681 1362.57 588.853Z" fill="#263238"/>
<path d="M1350.88 625.104C1350.17 628.65 1348.15 631.797 1345.22 633.915C1342.29 636.033 1338.67 636.967 1335.08 636.528C1333.28 636.327 1331.54 635.769 1329.97 634.888C1328.39 634.006 1327 632.818 1325.89 631.394C1324.78 629.97 1323.96 628.338 1323.49 626.594C1323.02 624.85 1322.9 623.029 1323.14 621.238C1323.79 617.606 1325.83 614.371 1328.83 612.221C1331.83 610.072 1335.55 609.177 1339.2 609.727C1342.79 610.218 1346.03 612.113 1348.23 614.997C1350.42 617.88 1351.37 621.516 1350.88 625.104Z" fill="#263238"/>
<path d="M1389.37 708.084C1398.18 706.933 1407.1 706.933 1415.91 708.084C1420.03 708.084 1423.99 708.084 1425.19 705.765C1426.47 701.682 1426.47 697.306 1425.19 693.223C1423.21 682.743 1421.15 671.748 1419.09 660.237C1410.5 613.249 1405.69 574.937 1407.58 574.336C1409.47 573.735 1417.71 611.875 1425.96 658.777C1427.85 670.373 1429.74 681.369 1431.46 691.935C1433.11 697.284 1432.77 703.048 1430.51 708.17C1429.68 709.496 1428.55 710.608 1427.2 711.414C1425.86 712.22 1424.35 712.698 1422.78 712.809C1420.45 713.131 1418.08 713.131 1415.74 712.809C1406.78 712.427 1397.91 710.838 1389.37 708.084Z" fill="#263238"/>
<path d="M1359.99 516.267C1357.84 519.875 1344.27 515.408 1327.52 514.291C1310.77 513.174 1296.68 515.322 1295.13 511.37C1294.45 509.48 1297.45 506.216 1303.72 503.467C1311.67 500.169 1320.28 498.785 1328.86 499.426C1337.44 500.068 1345.75 502.717 1353.12 507.161C1358.53 510.511 1360.85 514.119 1359.99 516.267Z" fill="#263238"/>
<path d="M1521.4 567.292C1519.16 570.213 1506.02 565.145 1489.61 562.739C1473.21 560.334 1459.38 560.849 1458 557.328C1457.4 555.695 1460.49 553.204 1466.59 551.314C1474.66 549.173 1483.09 548.763 1491.33 550.112C1499.69 551.291 1507.71 554.218 1514.87 558.702C1520.02 562.482 1522.34 565.832 1521.4 567.292Z" fill="#263238"/>
<path d="M1179.08 604.917C1177.28 603.8 1108.04 570.556 1098.25 645.29C1088.45 720.024 1165.42 714.011 1165.85 712.207C1166.28 710.404 1179.08 604.917 1179.08 604.917Z" fill="#FFCCB3"/>
<path d="M1146.7 680.939C1146.7 680.939 1145.32 681.712 1143 682.4C1139.72 683.286 1136.23 682.918 1133.21 681.369C1125.74 677.417 1120.75 664.189 1122.13 650.53C1122.77 644.107 1124.86 637.912 1128.23 632.405C1129.24 630.185 1130.78 628.244 1132.71 626.748C1134.64 625.252 1136.91 624.246 1139.31 623.815C1140.85 623.617 1142.42 623.964 1143.74 624.794C1145.05 625.625 1146.04 626.889 1146.52 628.368C1147.21 630.601 1146.52 631.976 1146.52 632.147C1146.52 632.319 1148.33 631.117 1148.07 627.938C1147.88 626.038 1147.07 624.255 1145.75 622.87C1143.88 621.069 1141.39 620.054 1138.79 620.035C1135.66 620.248 1132.63 621.259 1130 622.973C1127.37 624.688 1125.22 627.048 1123.76 629.828C1119.72 635.896 1117.22 642.853 1116.46 650.101C1115 665.134 1120.84 680.252 1131.23 684.461C1133.12 685.374 1135.19 685.848 1137.29 685.848C1139.39 685.848 1141.46 685.374 1143.35 684.461C1146.1 682.743 1146.95 681.111 1146.7 680.939Z" fill="#FF9A6A"/>
<path d="M1386.62 757.907C1386.62 755.931 1372.53 754.041 1360.85 742.703C1355.9 737.516 1351.6 731.747 1348.05 725.522C1345.21 720.712 1343.07 717.791 1342.38 718.135C1341.69 718.478 1342.38 721.914 1344.44 727.326C1347.2 734.537 1351.48 741.07 1356.98 746.482C1362.59 751.939 1369.61 755.718 1377.26 757.392C1382.5 758.938 1386.62 758.508 1386.62 757.907Z" fill="#263238"/>
<path d="M1514.95 602.168C1513.07 603.628 1500.44 600.965 1483.17 604.058C1465.91 607.15 1453.88 613.936 1451.82 613.163C1449.76 612.39 1452.68 610.5 1457.92 607.322C1465.65 603.017 1474.08 600.11 1482.83 598.732C1491.34 597.121 1500.08 597.121 1508.6 598.732C1513.84 600.192 1515.47 602.168 1514.95 602.168Z" fill="#263238"/>
<path d="M1493.39 645.72C1492.74 649.352 1490.7 652.587 1487.7 654.736C1484.7 656.886 1480.98 657.781 1477.33 657.231C1475.53 657.029 1473.8 656.471 1472.22 655.59C1470.64 654.708 1469.26 653.52 1468.14 652.096C1467.03 650.672 1466.22 649.04 1465.74 647.296C1465.27 645.552 1465.15 643.731 1465.39 641.94C1466.04 638.308 1468.08 635.073 1471.08 632.924C1474.08 630.774 1477.8 629.879 1481.45 630.429C1483.25 630.631 1484.99 631.189 1486.56 632.07C1488.14 632.952 1489.53 634.14 1490.64 635.564C1491.75 636.988 1492.57 638.62 1493.04 640.364C1493.51 642.108 1493.63 643.929 1493.39 645.72Z" fill="#263238"/>
<path d="M1690.71 483.023C1689.92 478.721 1687.53 474.881 1684.01 472.285C1676.22 467.593 1667.33 465.044 1658.24 464.898C1635.7 461.797 1614.15 453.664 1595.19 441.103C1602.62 438.432 1609.6 434.637 1615.89 429.85C1622.52 425.016 1627.69 418.453 1630.84 410.878C1633.99 403.304 1635 395.009 1633.76 386.899C1633.59 385.387 1633.08 383.934 1632.26 382.653C1631.44 381.371 1630.33 380.296 1629.03 379.512C1624.56 377.536 1620.01 381.573 1616.4 384.838C1611.65 389.978 1605.6 393.731 1598.88 395.698C1592.16 397.665 1585.04 397.771 1578.26 396.005C1568.96 394.262 1560.16 390.478 1552.49 384.924L1551.72 383.807L1542.19 371.609C1518.56 342.059 1497.69 321.013 1475.18 308.815C1442.2 290.862 1384.9 278.492 1347.71 283.732C1310.51 288.972 1274.69 314.57 1265.41 350.993C1247.11 331.493 1216.71 328.143 1190.94 335.187H1190.33C1161.73 341.801 1142.74 368.946 1131.41 396.005L1129.6 400.558C1118.61 414.272 1104.5 425.168 1088.45 432.341C1085.62 433.544 1082.36 435.09 1081.75 438.097C1081.62 439.632 1081.9 441.176 1082.56 442.566C1083.23 443.956 1084.25 445.142 1085.53 445.999C1091.64 451.453 1098.89 455.474 1106.75 457.768C1103.49 464.171 1099.69 470.291 1095.41 476.065C1091.72 480.961 1087.25 486.803 1089.31 492.558C1090.33 494.707 1091.98 496.497 1094.03 497.693C1096.09 498.889 1098.45 499.435 1100.82 499.258C1105.57 498.778 1110.16 497.315 1114.31 494.963L1102.54 515.837C1112.33 518.708 1122.66 519.237 1132.69 517.383C1134.62 544.064 1138 570.618 1142.83 596.928C1154.34 598.216 1165.51 596.928 1171.87 603.972C1180.46 613.765 1182.86 630.515 1199.61 626.22C1208.2 623.987 1217.48 607.837 1221.17 599.849C1245.59 546.677 1258.27 488.874 1258.37 430.365C1271.19 419.524 1285.98 411.243 1301.92 405.969L1300.55 407C1330.7 400.3 1364.71 394.201 1390.57 410.952C1410.76 424.009 1420.72 447.632 1434.64 467.131C1446.7 484.937 1462.34 500.031 1480.56 511.449C1498.78 522.868 1519.19 530.36 1540.47 533.447C1540.9 565.23 1532.91 604.573 1531.1 633.951L1563.58 589.97C1565.89 586.849 1568.04 583.609 1570.02 580.263L1570.7 579.232C1573.82 573.826 1577.2 568.58 1580.84 563.512C1583.9 566.734 1588.03 568.737 1592.46 569.149C1596.88 569.562 1601.31 568.357 1604.91 565.758C1608.52 563.158 1611.06 559.34 1612.07 555.01C1613.08 550.681 1612.48 546.133 1610.39 542.209C1608.28 538.528 1605.65 535.172 1602.57 532.244C1605.74 536.127 1609.85 539.124 1614.52 540.946C1619.19 542.767 1624.25 543.35 1629.2 542.638C1634.15 541.743 1638.66 539.235 1642.04 535.505C1645.41 531.776 1647.45 527.035 1647.84 522.022C1647.94 518.547 1647.08 515.112 1645.37 512.086C1643.66 509.059 1641.16 506.555 1638.14 504.842C1650.9 507.364 1664.12 506.018 1676.11 500.976C1684.18 498.485 1692.17 492.472 1690.71 483.023Z" fill="#263238"/>
<path d="M1296.42 366.712C1292.41 369.328 1288.56 372.197 1284.91 375.303C1275.58 384.293 1268.71 395.534 1264.98 407.945C1262.2 416.319 1260.27 424.953 1259.23 433.715C1258.11 443.336 1257.68 453.645 1257.17 464.468C1256.84 475.978 1255.78 487.455 1253.99 498.829C1252.96 504.827 1251.5 510.741 1249.61 516.524C1248.04 522.644 1244.93 528.261 1240.59 532.845C1238.55 534.661 1236.08 535.917 1233.42 536.489C1230.75 537.062 1227.98 536.931 1225.38 536.11C1220.44 534.661 1216.1 531.647 1213.01 527.52C1208.3 519.139 1205.92 509.645 1206.14 500.031L1208.29 500.547C1204.23 508.006 1199.11 514.835 1193.08 520.819C1187.28 526.315 1179.6 529.388 1171.61 529.409C1167.89 529.302 1164.28 528.204 1161.13 526.231C1158.22 524.287 1155.97 521.499 1154.69 518.242C1153.47 515.249 1153.09 511.986 1153.57 508.793C1154.03 505.808 1155.55 503.091 1157.86 501.148L1158.81 502.179C1151.73 508.585 1143.35 513.389 1134.24 516.267C1131.88 517.042 1129.47 517.673 1127.02 518.156C1126.17 518.241 1125.3 518.241 1124.45 518.156C1125.25 517.804 1126.08 517.544 1126.94 517.383C1128.57 517.383 1130.98 516.267 1133.98 515.15C1142.72 511.964 1150.72 507.057 1157.52 500.718L1158.46 501.835C1156.49 503.798 1155.19 506.333 1154.75 509.078C1154.3 511.822 1154.73 514.639 1155.97 517.126C1157.16 520.035 1159.2 522.52 1161.81 524.255C1164.68 526.011 1167.99 526.933 1171.35 526.918C1178.86 526.756 1186.01 523.675 1191.28 518.328C1197.16 512.667 1202.2 506.186 1206.23 499.086L1208.12 495.908V499.602C1208.02 508.743 1210.33 517.749 1214.82 525.716C1217.52 529.55 1221.42 532.388 1225.9 533.79C1228.1 534.481 1230.44 534.59 1232.7 534.109C1234.96 533.627 1237.05 532.571 1238.78 531.042C1242.91 526.667 1245.87 521.318 1247.37 515.493C1249.28 509.89 1250.75 504.146 1251.75 498.313C1253.53 487.108 1254.62 475.806 1255.02 464.468C1255.62 453.645 1256.05 443.25 1257.34 433.544C1258.48 424.571 1260.53 415.736 1263.44 407.172C1267.38 394.587 1274.61 383.287 1284.4 374.444C1287.96 371.227 1292.02 368.615 1296.42 366.712Z" fill="#455A64"/>
<path d="M1605.84 505.014L1604.89 505.615L1602.06 507.161C1600.56 508.087 1598.98 508.864 1597.33 509.48C1595.18 510.543 1592.94 511.406 1590.63 512.057C1576 516.805 1560.4 517.809 1545.28 514.978C1522.73 510.834 1501.85 500.276 1485.15 484.569C1465.11 465.071 1449.27 441.686 1438.59 415.848C1432.49 402.361 1427.77 388.789 1422.44 376.076C1417.55 363.762 1410.96 352.195 1402.85 341.715C1395.56 332.292 1386.02 324.849 1375.11 320.068C1370.1 318.097 1364.84 316.881 1359.47 316.46C1354.55 316.171 1349.61 316.546 1344.78 317.577C1336.39 319.375 1328.49 322.949 1321.59 328.057C1316.41 331.946 1311.86 336.611 1308.1 341.887C1305.15 346.57 1302.75 351.587 1300.98 356.834C1300.98 356.834 1300.98 356.834 1300.98 355.803C1300.98 354.772 1301.49 353.913 1301.83 352.625C1303.17 348.68 1304.96 344.904 1307.16 341.372C1310.94 335.953 1315.58 331.193 1320.9 327.284C1327.88 321.899 1335.94 318.089 1344.53 316.117C1349.55 315.023 1354.69 314.59 1359.82 314.828C1365.36 315.194 1370.81 316.441 1375.97 318.522C1387.29 323.304 1397.19 330.904 1404.74 340.599C1413.03 351.032 1419.77 362.604 1424.76 374.959C1430.26 387.758 1434.9 401.331 1440.91 414.645C1451.54 440.034 1467.17 463.025 1486.87 482.25C1503.14 497.796 1523.53 508.349 1545.62 512.659C1560.49 515.593 1575.84 514.886 1590.38 510.597C1595.63 509.012 1600.79 507.149 1605.84 505.014Z" fill="#455A64"/>
<path d="M1620.53 460.517C1619.26 461.364 1617.9 462.083 1616.49 462.664C1612.71 464.39 1608.81 465.826 1604.81 466.959C1598.91 468.707 1592.88 469.942 1586.77 470.653C1579.23 471.392 1571.63 471.392 1564.09 470.653C1556.53 469.986 1549.05 468.606 1541.76 466.53C1535.86 464.792 1530.12 462.58 1524.58 459.915C1520.85 458.119 1517.26 456.051 1513.84 453.731C1511.43 452.013 1510.14 451.068 1510.23 450.896C1510.32 450.724 1515.9 454.16 1525.35 458.369C1530.93 460.774 1536.67 462.783 1542.53 464.382C1549.71 466.272 1557.04 467.565 1564.43 468.248C1571.84 468.854 1579.28 468.854 1586.68 468.248C1592.71 467.664 1598.68 466.63 1604.55 465.155C1614.43 462.75 1620.36 460.087 1620.53 460.517Z" fill="#455A64"/>
<path d="M670.374 1263.09C670.374 1263.09 791.408 891.741 934.176 899.644L1145.49 893.373C1145.49 893.373 1185.95 1001.27 1263.52 1008.65C1341.09 1016.04 1371.76 966.733 1371.76 966.733C1371.76 966.733 1592.78 1054.01 1619.93 1146.44C1647.07 1238.87 1626.45 1485.41 1626.45 1485.41L1475.01 1477.5L1484.37 1675.07L1559.54 2057.94L797.25 2072.97L818.725 1480.25L842.004 1310.51L670.374 1263.09Z" fill="#455A64"/>
<path d="M888.391 1054.95C888.423 1058.83 887.961 1062.7 887.017 1066.46C885.385 1075.05 883.495 1085.28 881.261 1097.56C876.365 1123.76 869.665 1160.01 862.964 1200.13C856.264 1240.24 850.766 1276.75 846.901 1303.21C845.011 1315.49 843.465 1325.97 842.176 1334.48C841.81 1338.36 841.003 1342.2 839.771 1345.9C839.302 1342.02 839.302 1338.1 839.771 1334.22C840.287 1326.75 841.317 1316.01 842.778 1302.69C845.698 1276.15 850.595 1239.56 857.295 1199.61C863.995 1159.67 871.383 1123.25 877.224 1097.13C880.145 1084.07 882.722 1073.59 884.612 1066.38C885.412 1062.43 886.681 1058.6 888.391 1054.95Z" fill="#263238"/>
<path d="M1475.01 1477.5C1475.01 1477.5 1466.42 1634.87 1528.87 1679.37C1557.91 1699.99 1688.82 1699.56 1688.82 1699.56L1626.45 1485.4L1475.01 1477.5Z" fill="#FFCCB3"/>
<g opacity="0.3">
<path opacity="0.3" d="M1480.08 1590.03C1507.02 1493.22 1528.05 1394.85 1543.04 1295.48C1522.43 1329.06 1500.09 1404.23 1482.31 1453.54C1468.57 1492.11 1475.35 1532.99 1480.16 1586.6" fill="black"/>
</g>
<path d="M1559.54 1256.39C1555.73 1267.71 1551.23 1278.79 1546.05 1289.55C1537.46 1309.82 1525.61 1337.91 1513.67 1369.44C1501.73 1400.96 1491.85 1429.57 1484.98 1450.7C1481.73 1462.2 1477.74 1473.48 1473.04 1484.46C1473.14 1481.22 1473.69 1478.01 1474.67 1474.92C1476.04 1468.91 1478.28 1460.24 1481.37 1449.58C1487.38 1428.28 1496.66 1399.16 1508.6 1367.55C1520.54 1335.94 1532.99 1307.93 1542.96 1288C1547.77 1278.04 1551.55 1270.05 1554.73 1264.55C1555.93 1261.62 1557.55 1258.87 1559.54 1256.39Z" fill="#263238"/>
<path d="M1351.4 1621.47C1348.89 1624.67 1346 1627.55 1342.81 1630.06C1336.97 1635.3 1328.29 1642.78 1317.55 1651.8C1296.08 1669.92 1266.01 1694.32 1231.65 1720.52C1197.29 1746.72 1166.02 1769.22 1142.83 1785.2C1131.32 1793.19 1121.87 1799.46 1115.26 1803.76C1111.93 1806.18 1108.36 1808.26 1104.6 1809.94C1107.45 1806.96 1110.62 1804.31 1114.05 1802.04L1140.68 1782.11C1163.19 1764.93 1194.37 1742.25 1228.39 1716.22C1262.41 1690.19 1292.99 1666.4 1315.06 1649.05L1341.35 1628.6C1344.45 1625.89 1347.82 1623.51 1351.4 1621.47Z" fill="#263238"/>
<path d="M2051.32 1024.63L1940.25 900.417C1935.65 895.251 1929.7 891.472 1923.07 889.508L1822.48 862.105C1816.95 860.622 1811.15 860.456 1805.54 861.62C1799.93 862.783 1794.67 865.244 1790.18 868.805L1692.94 946.117C1686.91 950.949 1682.55 957.562 1680.49 965.015L1591.49 1292.3C1590.23 1296.93 1589.9 1301.76 1590.52 1306.52C1591.13 1311.28 1592.68 1315.87 1595.08 1320.03C1597.47 1324.19 1600.66 1327.84 1604.47 1330.76C1608.28 1333.68 1612.63 1335.82 1617.26 1337.05L1923.67 1420.38C1928.3 1421.64 1933.13 1421.97 1937.88 1421.35C1942.63 1420.74 1947.22 1419.19 1951.37 1416.79C1955.52 1414.39 1959.16 1411.2 1962.07 1407.39C1964.99 1403.59 1967.12 1399.24 1968.34 1394.61L2059.91 1058.13C2061.38 1052.27 2061.36 1046.14 2059.86 1040.29C2058.36 1034.44 2055.43 1029.06 2051.32 1024.63ZM1998.32 1065.86C1995.69 1068.22 1992.62 1070.03 1989.28 1071.19C1985.95 1072.36 1982.42 1072.85 1978.89 1072.65C1975.37 1072.45 1971.91 1071.56 1968.73 1070.03C1965.55 1068.5 1962.71 1066.35 1960.35 1063.72L1889.74 984.772C1887.39 982.145 1885.58 979.081 1884.42 975.754C1883.26 972.428 1882.76 968.904 1882.96 965.386C1883.16 961.867 1884.05 958.422 1885.58 955.248C1887.11 952.074 1889.26 949.234 1891.89 946.89C1897.19 942.155 1904.16 939.713 1911.26 940.1C1918.36 940.486 1925.01 943.669 1929.77 948.951L2000.38 1027.98C2002.75 1030.61 2004.58 1033.68 2005.76 1037.02C2006.94 1040.36 2007.45 1043.9 2007.26 1047.44C2007.07 1050.97 2006.18 1054.44 2004.65 1057.63C2003.11 1060.82 2000.96 1063.68 1998.32 1066.03V1065.86Z" fill="#455A64"/>
<path d="M1928.17 855.086L1833.09 829.219L1823.98 862.706L1919.05 888.573L1928.17 855.086Z" fill="#455A64"/>
<path d="M1945.27 832.339L1827.32 800.248C1822.33 798.891 1817.18 801.835 1815.82 806.825L1808.52 833.681C1807.16 838.67 1810.1 843.816 1815.09 845.174L1933.04 877.264C1938.03 878.622 1943.18 875.677 1944.54 870.687L1951.84 843.832C1953.2 838.842 1950.25 833.696 1945.27 832.339Z" fill="#263238"/>
<path d="M1589 1264.3C1588.94 1260.28 1587.61 1256.39 1585.21 1253.18C1582.8 1249.97 1579.44 1247.61 1575.6 1246.43C1577.5 1246.25 1579.35 1245.67 1581.01 1244.74C1582.68 1243.8 1584.13 1242.53 1585.28 1241C1586.43 1239.47 1587.25 1237.72 1587.68 1235.86C1588.11 1234 1588.15 1232.07 1587.8 1230.19C1587.8 1226.19 1586.7 1222.26 1584.63 1218.84C1582.55 1215.42 1579.58 1212.63 1576.03 1210.78C1579.73 1209.84 1582.96 1207.57 1585.08 1204.4C1587.21 1201.22 1588.08 1197.38 1587.54 1193.6C1586.34 1178.91 1570.36 1176.85 1570.36 1176.85C1570.36 1176.85 1585.05 1175.64 1585.14 1162.07C1585.22 1148.5 1569.59 1145.58 1569.59 1145.58L1582.47 1130.29L1578.35 1080.21C1578.11 1077.5 1577.29 1074.88 1575.96 1072.51C1574.62 1070.14 1572.81 1068.08 1570.62 1066.46L1523.8 1032.1L1465.22 1037L1456.63 1037.69L1416.17 1079.69C1414.29 1081.66 1412.84 1083.99 1411.92 1086.56C1411 1089.12 1410.63 1091.84 1410.84 1094.55L1415.05 1144.63L1430.26 1157.52C1430.26 1157.52 1415.4 1163.02 1417.71 1176.42C1418.56 1180.21 1420.79 1183.55 1423.97 1185.79C1427.14 1188.03 1431.04 1189.01 1434.9 1188.53C1430.69 1189.71 1427 1192.24 1424.39 1195.74C1421.78 1199.23 1420.4 1203.49 1420.46 1207.86C1420.49 1211.74 1421.97 1215.47 1424.61 1218.31C1427.25 1221.16 1430.86 1222.91 1434.72 1223.23C1431.5 1225.6 1429 1228.81 1427.48 1232.51C1425.97 1236.2 1425.5 1240.25 1426.13 1244.19C1426.09 1246.11 1426.45 1248.01 1427.18 1249.77C1427.92 1251.54 1429.01 1253.14 1430.39 1254.46C1431.77 1255.78 1433.41 1256.81 1435.2 1257.47C1437 1258.12 1438.91 1258.4 1440.82 1258.28C1437.24 1260.09 1434.32 1262.98 1432.49 1266.54C1430.65 1270.11 1429.99 1274.16 1430.6 1278.13C1430.48 1282.03 1431.69 1285.85 1434.03 1288.98C1436.37 1292.1 1439.71 1294.33 1443.49 1295.31L1429.05 1313.86L1437.64 1419.78C1440.19 1426.27 1444.87 1431.71 1450.9 1435.21C1456.94 1438.7 1463.99 1440.04 1470.89 1439.02C1477.79 1438.83 1484.37 1436.09 1489.36 1431.33C1494.36 1426.57 1497.42 1420.13 1497.95 1413.25C1497.95 1413.25 1500.27 1436.36 1521.74 1434.98H1524.58C1546.05 1432.83 1544.51 1409.64 1544.51 1409.64C1546.12 1416.39 1550.2 1422.29 1555.93 1426.19C1561.66 1430.1 1568.65 1431.73 1575.52 1430.77C1582.48 1430.61 1589.18 1428.11 1594.55 1423.67C1599.91 1419.23 1603.62 1413.1 1605.07 1406.29L1596.48 1300.29L1579.3 1284.4C1583.04 1282.75 1586.08 1279.82 1587.86 1276.14C1589.64 1272.45 1590.04 1268.25 1589 1264.3Z" fill="#E0E0E0"/>
<path d="M1520.28 994.987L1453.59 1000.54C1450.57 1000.79 1448.32 1003.45 1448.57 1006.48L1450.71 1032.16C1450.96 1035.18 1453.62 1037.43 1456.64 1037.18L1523.33 1031.63C1526.36 1031.37 1528.61 1028.72 1528.35 1025.69L1526.21 1000.01C1525.96 996.984 1523.31 994.735 1520.28 994.987Z" fill="#263238"/>
<path d="M1569.33 1145.41C1545.64 1149.59 1521.71 1152.32 1497.69 1153.57C1473.77 1156.32 1449.7 1157.58 1425.62 1157.35C1449.3 1153.04 1473.23 1150.17 1497.26 1148.76C1521.19 1146.13 1545.26 1145.01 1569.33 1145.41Z" fill="#263238"/>
<path d="M1581.1 1130.12C1553.68 1134.68 1526.04 1137.74 1498.29 1139.31C1470.68 1142.37 1442.92 1143.91 1415.14 1143.95C1442.67 1139.39 1470.43 1136.32 1498.29 1134.76C1525.79 1131.74 1553.43 1130.19 1581.1 1130.12Z" fill="#263238"/>
<path d="M1573.71 1177.71C1550.16 1181.89 1526.38 1184.62 1502.5 1185.87C1478.78 1188.61 1454.91 1189.88 1431.03 1189.65C1454.53 1185.29 1478.29 1182.42 1502.16 1181.06C1525.92 1178.47 1549.81 1177.36 1573.71 1177.71Z" fill="#263238"/>
<path d="M1576.37 1209.66C1552.86 1213.84 1529.1 1216.57 1505.25 1217.82C1481.5 1220.57 1457.6 1221.8 1433.69 1221.52C1457.22 1217.39 1480.97 1214.66 1504.82 1213.36C1528.57 1210.66 1552.47 1209.43 1576.37 1209.66Z" fill="#263238"/>
<path d="M1579.3 1245.31C1555.78 1249.51 1532.02 1252.23 1508.17 1253.47C1484.45 1256.22 1460.58 1257.45 1436.7 1257.17C1460.22 1252.98 1483.97 1250.25 1507.83 1249C1531.55 1246.31 1555.42 1245.08 1579.3 1245.31Z" fill="#263238"/>
<path d="M1582.3 1280.79C1558.78 1284.97 1535.03 1287.7 1511.18 1288.95C1487.42 1291.65 1463.52 1292.88 1439.62 1292.64C1463.16 1288.31 1486.94 1285.44 1510.83 1284.05C1534.56 1281.45 1558.43 1280.36 1582.3 1280.79Z" fill="#263238"/>
<path d="M1596.48 1299.94C1568.82 1304.46 1540.95 1307.52 1512.98 1309.14C1485.11 1312.24 1457.09 1313.82 1429.05 1313.86C1456.71 1309.35 1484.58 1306.28 1512.55 1304.67C1540.42 1301.61 1568.44 1300.03 1596.48 1299.94Z" fill="#263238"/>
<path d="M1779.27 1136.3C1779.57 1131.68 1778.39 1127.08 1775.91 1123.18C1773.42 1119.27 1769.76 1116.25 1765.44 1114.57C1767.64 1114.51 1769.8 1114 1771.79 1113.06C1773.77 1112.13 1775.55 1110.79 1776.99 1109.14C1778.44 1107.48 1779.52 1105.54 1780.18 1103.45C1780.84 1101.35 1781.06 1099.14 1780.82 1096.96C1781.09 1092.37 1780.12 1087.79 1778.02 1083.69C1775.92 1079.6 1772.77 1076.14 1768.88 1073.68C1773.26 1072.9 1777.2 1070.52 1779.92 1066.99C1782.63 1063.46 1783.94 1059.05 1783.57 1054.61C1783.57 1037.43 1764.84 1033.91 1764.84 1033.91C1764.84 1033.91 1782.02 1033.91 1783.05 1018.19C1784.08 1002.47 1766.56 997.915 1766.56 997.915L1782.62 981.422L1781.94 923.525C1781.9 920.404 1781.2 917.327 1779.88 914.498C1778.56 911.669 1776.66 909.153 1774.29 907.118L1723.27 863.394L1655.58 864.167H1645.87L1595.87 909.093C1593.56 911.187 1591.71 913.746 1590.45 916.603C1589.19 919.46 1588.55 922.55 1588.57 925.672L1589.26 983.57L1605.75 999.633C1605.75 999.633 1588.57 1004.79 1589.69 1020.34C1590.36 1024.73 1592.62 1028.72 1596.04 1031.55C1599.46 1034.39 1603.8 1035.87 1608.24 1035.71C1603.31 1036.72 1598.86 1039.34 1595.56 1043.14C1592.27 1046.95 1590.33 1051.73 1590.03 1056.76C1589.76 1061.21 1591.16 1065.61 1593.96 1069.08C1596.75 1072.56 1600.74 1074.87 1605.15 1075.57C1601.29 1078.07 1598.19 1081.57 1596.18 1085.71C1594.16 1089.84 1593.32 1094.44 1593.73 1099.02C1593.56 1101.2 1593.85 1103.4 1594.56 1105.46C1595.28 1107.53 1596.42 1109.43 1597.9 1111.04C1599.38 1112.65 1601.18 1113.94 1603.18 1114.83C1605.18 1115.72 1607.34 1116.18 1609.53 1116.2C1605.26 1118 1601.66 1121.1 1599.25 1125.07C1596.84 1129.03 1595.75 1133.65 1596.13 1138.28C1595.73 1142.73 1596.84 1147.19 1599.26 1150.94C1601.69 1154.69 1605.31 1157.52 1609.53 1158.98L1591.49 1179.17L1592.87 1301.66C1595.28 1309.31 1600.21 1315.93 1606.85 1320.43C1613.49 1324.94 1621.46 1327.07 1629.46 1326.49C1637.44 1326.84 1645.26 1324.22 1651.41 1319.12C1657.55 1314.02 1661.58 1306.82 1662.71 1298.91C1662.71 1298.91 1663.48 1325.63 1688.48 1325.8H1691.74C1716.57 1325.03 1716.74 1298.23 1716.74 1298.23C1718.02 1306.11 1722.2 1313.24 1728.46 1318.21C1734.72 1323.18 1742.61 1325.64 1750.58 1325.11C1758.61 1325.5 1766.53 1323.17 1773.06 1318.49C1779.6 1313.81 1784.36 1307.07 1786.57 1299.34L1785.11 1176.85L1766.56 1157.09C1770.69 1155.53 1774.18 1152.64 1776.48 1148.88C1778.79 1145.11 1779.77 1140.69 1779.27 1136.3Z" fill="#E0E0E0"/>
<path d="M1766.56 998.087C1738.95 1000.62 1711.22 1001.68 1683.49 1001.27C1655.8 1002.35 1628.07 1001.92 1600.43 999.977C1628.04 997.441 1655.77 996.38 1683.49 996.798C1711.18 995.711 1738.92 996.141 1766.56 998.087Z" fill="#263238"/>
<path d="M1781.76 981.508C1781.76 982.796 1738.81 984.257 1685.81 984.858C1632.81 985.459 1589.86 984.858 1589.86 983.741C1589.86 982.625 1632.81 980.993 1685.73 980.391C1738.64 979.79 1781.25 980.134 1781.76 981.508Z" fill="#263238"/>
<path d="M1768.88 1035.2C1741.5 1037.73 1714 1038.79 1686.5 1038.37C1658.98 1039.46 1631.42 1039.03 1603.95 1037.09C1631.36 1034.56 1658.89 1033.5 1686.41 1033.91C1713.91 1032.87 1741.43 1033.3 1768.88 1035.2Z" fill="#263238"/>
<path d="M1769.31 1072.56C1741.93 1075.09 1714.43 1076.15 1686.93 1075.74C1659.41 1076.78 1631.85 1076.35 1604.38 1074.45C1631.79 1071.87 1659.32 1070.81 1686.84 1071.27C1714.33 1070.19 1741.87 1070.62 1769.31 1072.56Z" fill="#263238"/>
<path d="M1769.82 1113.71C1742.42 1116.29 1714.88 1117.35 1687.36 1116.89C1659.87 1117.98 1632.34 1117.55 1604.89 1115.6C1632.31 1113.07 1659.83 1112.01 1687.36 1112.42C1714.85 1111.39 1742.38 1111.82 1769.82 1113.71Z" fill="#263238"/>
<path d="M1770.25 1154.94C1742.87 1157.47 1715.37 1158.53 1687.87 1158.12C1660.38 1159.16 1632.86 1158.73 1605.41 1156.83C1632.79 1154.25 1660.29 1153.19 1687.79 1153.65C1715.28 1152.57 1742.81 1153 1770.25 1154.94Z" fill="#263238"/>
<path d="M1784.94 1177.71C1784.94 1178.99 1741.99 1180.46 1688.22 1181.06C1634.44 1181.66 1591.49 1181.06 1591.49 1179.94C1591.49 1178.82 1634.44 1177.28 1688.22 1176.59C1741.99 1175.9 1784.94 1176.68 1784.94 1177.71Z" fill="#263238"/>
<path d="M1721.23 821.128L1646.76 821.986C1642.54 822.034 1639.16 825.496 1639.21 829.718L1639.52 856.776C1639.57 860.998 1643.03 864.381 1647.25 864.332L1721.72 863.474C1725.94 863.426 1729.33 859.964 1729.28 855.742L1728.97 828.684C1728.92 824.462 1725.46 821.079 1721.23 821.128Z" fill="#455A64"/>
<path d="M1653.6 863.909C1651.31 857.322 1650.4 850.333 1650.94 843.379C1650.07 836.49 1650.66 829.497 1652.65 822.848C1655.07 829.377 1656.01 836.359 1655.4 843.293C1656.25 850.216 1655.64 857.239 1653.6 863.909Z" fill="#263238"/>
<path d="M1668.8 862.621C1666.51 856.065 1665.6 849.102 1666.14 842.176C1665.23 835.255 1665.85 828.218 1667.95 821.56C1671.21 835.022 1671.5 849.034 1668.8 862.621Z" fill="#263238"/>
<path d="M1684.18 863.222C1681.89 856.635 1680.98 849.645 1681.52 842.692C1680.65 835.803 1681.24 828.81 1683.24 822.161C1685.65 828.69 1686.59 835.671 1685.98 842.606C1686.83 849.528 1686.22 856.552 1684.18 863.222Z" fill="#263238"/>
<path d="M1700.67 862.449C1698.38 855.862 1697.47 848.872 1698.01 841.918C1697.1 835.026 1697.71 828.016 1699.81 821.388C1702.11 827.944 1703.02 834.907 1702.48 841.832C1703.39 848.754 1702.77 855.791 1700.67 862.449Z" fill="#263238"/>
<path d="M1715.96 862.019C1713.67 855.433 1712.76 848.443 1713.3 841.489C1712.39 834.596 1713 827.586 1715.1 820.958C1717.42 827.511 1718.32 834.477 1717.77 841.403C1718.67 848.325 1718.05 855.359 1715.96 862.019Z" fill="#263238"/>
<path d="M1344.12 1316.24L2030.86 1308.33C2051.25 1308.09 2067.6 1291.37 2067.37 1270.97L2067 1239.02C2066.76 1218.62 2050.04 1202.27 2029.64 1202.51L1342.9 1210.42C1322.5 1210.65 1306.16 1227.38 1306.39 1247.78L1306.76 1279.73C1307 1300.13 1323.72 1316.48 1344.12 1316.24Z" fill="#57E089"/>
<path d="M2006.4 1297.28L1926.25 2012.07C1925.12 2021.82 1920.53 2030.84 1913.31 2037.5C1906.09 2044.15 1896.72 2047.99 1886.91 2048.32L1479.31 2061.37C1468.96 2061.71 1458.87 2058.09 1451.09 2051.27C1443.3 2044.44 1438.41 2034.91 1437.39 2024.61L1365.57 1300.37C1363.17 1276.49 1381.89 1255.7 1400.88 1255.53L1960.52 1251.84C1989.99 1251.67 2009.14 1272.97 2006.4 1297.28Z" fill="#57E089"/>
<path d="M1908.3 1742.76C1907.01 1742.76 1915.51 1645.61 1927.11 1525.95C1938.71 1406.29 1950.3 1308.36 1950.39 1309.56C1950.47 1310.77 1943.17 1406.72 1931.58 1526.38C1919.98 1646.04 1909.5 1742.94 1908.3 1742.76Z" fill="#263238"/>
<path d="M2016.28 1308.53C2016.28 1309.82 1870.24 1312.4 1689.85 1314.38C1509.46 1316.35 1363.43 1316.95 1363.43 1315.75C1363.43 1314.55 1509.46 1311.88 1689.85 1309.91C1870.24 1307.93 2016.28 1307.33 2016.28 1308.53Z" fill="#263238"/>
<path d="M1959.24 1755.13C1959.24 1755.13 2018.08 1766.04 2003.48 1843.61C2003.48 1843.61 2029.68 1912.33 1995.31 1939.14C1960.95 1965.94 1977.1 2032.77 1941.8 2051.49C1923.16 2061.46 1888.02 2068.67 1859.08 2072.54C1855.22 2073.08 1851.3 2072.24 1848.01 2070.15C1844.72 2068.07 1842.28 2064.89 1841.12 2061.17C1839.96 2057.45 1840.17 2053.44 1841.69 2049.86C1843.22 2046.28 1845.97 2043.36 1849.45 2041.62C1852.54 2040.01 1855.72 2038.6 1858.99 2037.41L1901.94 2017.99L1928.14 1952.62L1849.2 1962.93C1843.75 1963.78 1838.17 1962.95 1833.2 1960.56C1828.23 1958.17 1824.1 1954.32 1821.36 1949.53C1816.73 1940.94 1817.33 1929.77 1838.55 1920.58C1874.97 1904.69 1936.64 1896.61 1936.64 1896.61L1946.61 1827.29C1946.61 1827.29 1922.21 1850.4 1914.83 1824.71C1907.44 1799.03 1959.24 1755.13 1959.24 1755.13Z" fill="#FFCCB3"/>
<path d="M1972.81 1791.81C1972.89 1796.05 1971.85 1800.22 1969.8 1803.93C1965.99 1813.23 1960.11 1821.54 1952.62 1828.24C1948.41 1832 1943.51 1834.92 1938.19 1836.83C1935.91 1837.7 1933.49 1838.1 1931.05 1838.01C1928.62 1837.92 1926.22 1837.35 1924.02 1836.31C1920.98 1834.99 1918.56 1832.56 1917.23 1829.53C1916.37 1827.38 1916.63 1826.09 1917.23 1826C1917.83 1825.92 1918.86 1830.99 1925.82 1833.39C1929.6 1834.7 1933.74 1834.54 1937.42 1832.96C1942.18 1830.87 1946.54 1827.96 1950.3 1824.37C1959.61 1814.88 1967.22 1803.87 1972.81 1791.81Z" fill="#FF9A6A"/>
<path d="M1997.03 1925.91C1997.03 1925.91 1995.92 1927.97 1992.91 1930.63C1988.61 1934.39 1983.78 1937.49 1978.56 1939.82C1961.19 1946.48 1943.03 1950.87 1924.53 1952.88C1903.14 1956.32 1883.82 1959.24 1869.73 1961.47C1862.2 1962.92 1854.55 1963.64 1846.88 1963.62C1854.12 1961.09 1861.61 1959.31 1869.21 1958.29C1883.13 1955.63 1902.46 1952.28 1923.76 1948.76C1941.95 1946.77 1959.88 1942.91 1977.28 1937.25C1984.2 1934.08 1990.81 1930.29 1997.03 1925.91Z" fill="#FF9A6A"/>
<path d="M1929.34 877.482C1911.68 875.191 1894.24 871.427 1877.2 866.228C1859.81 862.417 1842.77 857.159 1826.26 850.509C1843.89 852.861 1861.3 856.653 1878.32 861.847C1895.73 865.648 1912.79 870.877 1929.34 877.482Z" fill="#263238"/>
<path d="M1245.83 1160.53C1246.76 1156.62 1246.43 1152.53 1244.88 1148.82C1243.34 1145.12 1240.66 1142 1237.24 1139.91C1239.13 1140.17 1241.06 1140.04 1242.9 1139.53C1244.75 1139.01 1246.46 1138.12 1247.95 1136.91C1249.43 1135.7 1250.65 1134.2 1251.53 1132.5C1252.4 1130.8 1252.92 1128.93 1253.04 1127.02C1253.98 1123.15 1253.84 1119.1 1252.65 1115.3C1251.45 1111.5 1249.24 1108.1 1246.26 1105.46C1250.13 1105.41 1253.85 1103.93 1256.69 1101.29C1259.53 1098.66 1261.29 1095.06 1261.63 1091.2C1262.02 1086.87 1260.96 1082.52 1258.63 1078.85C1256.3 1075.17 1252.83 1072.36 1248.75 1070.85C1252.54 1071.56 1256.46 1070.85 1259.75 1068.86C1263.05 1066.86 1265.5 1063.71 1266.61 1060.02C1269.96 1046.88 1255.53 1040.18 1255.53 1040.18L1271.68 1028.5L1279.67 978.931C1280.13 976.249 1280 973.5 1279.29 970.874C1278.57 968.248 1277.3 965.809 1275.55 963.726L1238.44 918.8L1180.46 909.093L1171.87 907.719L1122.47 938.729C1120.19 940.184 1118.24 942.109 1116.76 944.375C1115.28 946.642 1114.3 949.197 1113.88 951.872L1105.89 1001.44L1117.58 1017.59C1117.58 1017.59 1101.77 1019.39 1100.4 1032.96C1099.02 1046.54 1113.97 1048.77 1113.97 1048.77C1109.6 1048.92 1105.41 1050.51 1102.04 1053.29C1098.67 1056.07 1096.31 1059.89 1095.33 1064.14C1094.44 1067.91 1094.98 1071.87 1096.86 1075.25C1098.73 1078.64 1101.8 1081.2 1105.46 1082.44C1101.79 1084 1098.61 1086.54 1096.28 1089.78C1093.94 1093.02 1092.55 1096.84 1092.24 1100.82C1091.74 1102.67 1091.64 1104.6 1091.93 1106.49C1092.22 1108.38 1092.9 1110.19 1093.92 1111.81C1094.95 1113.42 1096.3 1114.81 1097.88 1115.87C1099.47 1116.94 1101.26 1117.67 1103.14 1118.01C1099.18 1118.93 1095.62 1121.09 1092.98 1124.18C1090.34 1127.28 1088.75 1131.13 1088.46 1135.19C1087.44 1138.95 1087.74 1142.95 1089.3 1146.53C1090.86 1150.1 1093.59 1153.04 1097.05 1154.86L1078.58 1169.46L1061.4 1274.43C1062.33 1281.32 1065.56 1287.7 1070.56 1292.53C1075.56 1297.37 1082.05 1300.37 1088.97 1301.06C1095.74 1302.55 1102.83 1301.47 1108.85 1298.02C1114.86 1294.58 1119.39 1289.02 1121.53 1282.42C1121.53 1282.42 1118.26 1305.36 1139.39 1309.22H1142.23C1163.53 1312.23 1168 1289.38 1168 1289.38C1167.94 1296.32 1170.47 1303.03 1175.09 1308.21C1179.71 1313.39 1186.1 1316.66 1193 1317.38C1199.76 1318.84 1206.82 1317.99 1213.05 1314.97C1219.27 1311.95 1224.31 1306.93 1227.36 1300.72L1244.54 1195.75L1232 1176.25C1235.71 1175.52 1239.08 1173.58 1241.58 1170.74C1244.08 1167.89 1245.58 1164.3 1245.83 1160.53Z" fill="#E0E0E0"/>
<path d="M1244.1 882.128L1178.04 871.464C1175.04 870.98 1172.22 873.018 1171.73 876.016L1167.63 901.457C1167.14 904.454 1169.18 907.276 1172.18 907.76L1238.24 918.424C1241.24 918.908 1244.06 916.871 1244.54 913.873L1248.65 888.432C1249.13 885.435 1247.1 882.612 1244.1 882.128Z" fill="#263238"/>
<path d="M1255.36 1040.26C1231.34 1038.7 1207.44 1035.6 1183.81 1030.99C1159.96 1027.87 1136.32 1023.31 1113.02 1017.33C1137.04 1018.95 1160.94 1022.04 1184.58 1026.61C1208.43 1029.72 1232.07 1034.28 1255.36 1040.26Z" fill="#263238"/>
<path d="M1270.48 1028.07C1242.75 1025.87 1215.17 1022.18 1187.84 1016.99C1160.3 1013.29 1132.97 1008.13 1105.98 1001.52C1133.7 1003.77 1161.28 1007.47 1188.62 1012.6C1216.16 1016.3 1243.49 1021.46 1270.48 1028.07Z" fill="#263238"/>
<path d="M1251.93 1072.13C1228.08 1070.53 1204.35 1067.46 1180.88 1062.94C1157.18 1059.87 1133.68 1055.34 1110.53 1049.37C1134.39 1050.87 1158.12 1053.94 1181.57 1058.56C1205.28 1061.64 1228.78 1066.17 1251.93 1072.13Z" fill="#263238"/>
<path d="M1246.69 1104.09C1222.86 1102.58 1199.16 1099.51 1175.73 1094.9C1152.02 1091.83 1128.53 1087.3 1105.38 1081.33C1129.22 1082.93 1152.95 1086 1176.42 1090.52C1200.1 1093.57 1223.57 1098.11 1246.69 1104.09Z" fill="#263238"/>
<path d="M1241.02 1139.39C1217.16 1137.88 1193.43 1134.81 1169.98 1130.2C1146.3 1127.13 1122.83 1122.6 1099.71 1116.63C1123.55 1118.24 1147.28 1121.31 1170.75 1125.82C1194.43 1128.89 1217.9 1133.42 1241.02 1139.39Z" fill="#263238"/>
<path d="M1235.35 1174.7C1211.49 1173.2 1187.76 1170.13 1164.31 1165.51C1140.62 1162.45 1117.16 1157.92 1094.04 1151.94C1117.86 1153.5 1141.56 1156.57 1164.99 1161.13C1188.7 1164.19 1212.2 1168.72 1235.35 1174.7Z" fill="#263238"/>
<path d="M1244.45 1196.6C1216.53 1194.35 1188.74 1190.62 1161.21 1185.44C1133.44 1181.7 1105.88 1176.48 1078.66 1169.8C1106.59 1172.06 1134.37 1175.79 1161.9 1180.97C1189.68 1184.7 1217.23 1189.92 1244.45 1196.6Z" fill="#263238"/>
<path d="M1110.27 1040.26C1110.27 1040.26 1068.78 1054.78 1067.32 1073.94C1065.86 1093.09 1025.15 1215.5 1025.15 1215.5L842.004 1309.91L673.638 1263.61C673.638 1263.61 589.97 1429.4 578.288 1479.13C569.182 1517.7 568.323 1633.76 618.318 1649.22C687.039 1670.61 788.144 1618.98 843.894 1572.51C924.813 1505.08 1088.54 1345.82 1111.3 1296.51C1126.07 1263.67 1138.59 1229.86 1148.76 1195.32L1110.27 1040.26Z" fill="#FFCCB3"/>
<path d="M1110.27 1040.26C1110.27 1040.26 1212.41 1016.21 1219.54 1021.37C1226.67 1026.52 1269.19 1077.55 1269.02 1087.08C1268.85 1096.62 1256.22 1116.89 1256.22 1116.89C1256.22 1116.89 1270.48 1161.64 1235.43 1177.02C1235.43 1177.02 1261.2 1195.92 1252.01 1218.51C1247.59 1227.53 1241.08 1235.36 1233.03 1241.36L1226.84 1212.67L1173.76 1195.49L1146.1 1203.48L1103.14 1134.76L1110.27 1040.26Z" fill="#FFCCB3"/>
<path d="M1232 1177.71C1231.33 1172.61 1229.51 1167.73 1226.67 1163.45C1221.34 1155.37 1208.63 1150.82 1193.68 1147.47C1163.96 1139.74 1140.17 1132.18 1140.6 1130.29C1141.03 1128.4 1165.42 1133.64 1195.14 1141.28C1202.38 1142.92 1209.43 1145.28 1216.19 1148.33C1221.97 1150.95 1226.86 1155.18 1230.28 1160.53C1236.03 1170.58 1232.68 1177.71 1232 1177.71Z" fill="#FF9A6A"/>
<path d="M1240.59 1171.26C1239.24 1164.04 1238.86 1156.68 1239.47 1149.36C1240.17 1141.88 1239.68 1134.34 1238.01 1127.02C1235.17 1120.07 1224.87 1118.43 1214.82 1116.54C1174.61 1107.95 1142.32 1099.36 1142.66 1097.39C1143 1095.41 1175.9 1101.77 1216.1 1110.7C1221.16 1111.67 1226.15 1112.93 1231.05 1114.48C1233.67 1115.26 1236.09 1116.58 1238.16 1118.35C1240.24 1120.13 1241.91 1122.32 1243.08 1124.79C1244.57 1129.18 1245.07 1133.84 1244.54 1138.45C1244.54 1142.23 1243.94 1145.92 1243.68 1149.53C1243.69 1156.89 1242.65 1164.2 1240.59 1171.26Z" fill="#FF9A6A"/>
<path d="M1257.77 1117.06C1256.99 1117.58 1252.7 1110.62 1250.12 1098.51C1248.79 1091.72 1246.38 1085.2 1242.99 1079.18C1240.87 1075.82 1237.93 1073.06 1234.44 1071.16C1230.95 1069.27 1227.03 1068.3 1223.06 1068.35C1186.04 1067.5 1155.63 1066.21 1155.63 1064.49C1155.63 1062.77 1185.87 1061.48 1223.66 1062.43C1228.6 1062.73 1233.43 1064.04 1237.84 1066.29C1241.96 1068.71 1245.37 1072.18 1247.72 1076.34C1251.19 1082.98 1253.4 1090.2 1254.24 1097.65C1255.36 1109.84 1257.77 1116.63 1257.77 1117.06Z" fill="#FF9A6A"/>
<path d="M903.338 1281.3C892.484 1288.29 881.145 1294.49 869.407 1299.86L786.77 1342.81C755.502 1359.99 727.24 1374.85 704.82 1387.05C693.799 1393.6 682.315 1399.34 670.459 1404.23C680.614 1396.27 691.418 1389.17 702.758 1383.01C723.203 1370.64 751.894 1354.23 784.107 1337.23C816.32 1320.22 845.956 1305.7 867.689 1295.73C879.129 1289.9 891.057 1285.07 903.338 1281.3Z" fill="#FF9A6A"/>
</svg>
